<svg xmlns="http://www.w3.org/2000/svg" height="80" width="162" version="1.1" xmlns:cc="http://creativecommons.org/ns#" xmlns:dc="http://purl.org/dc/elements/1.1/">
 <g transform="translate(0,-972.36218)">
  <g transform="matrix(0.08373082,0,0,0.08373082,59.606775,990.92709)">
   <path fill="#e34f26" d="M71,460,30,0,481,0,440,460,255,512"/>
   <path fill="#ef652a" d="M256,472,405,431,440,37,256,37"/>
   <path fill="#ebebeb" d="m256,208-75,0-5-58,80,0,0-56-1,0-141,0,1,15,14,156,127,0zm0,147-1,0-63-17-4-45-30,0-26,0,7,89,116,32,1,0z"/>
   <path fill="#FFF" d="m255,208,0,57,70,0-7,73-63,17,0,59,116-32,1-10,13-149,2-15-16,0zm0-114,0,35,0,21,137,0,1-12,3-29,1-15z"/>
  </g>
 </g>
</svg>
