<svg xmlns="http://www.w3.org/2000/svg" width="22" height="22" viewBox="0 0 22 22"><g fill="none" fill-rule="evenodd"><path fill="#000" d="M14.385 11.423h-1.693v-.846h1.693V8.885h.846v1.692h1.693v.846H15.23v1.692h-.845v-1.692zM11 22c6.075 0 11-4.925 11-11S17.075 0 11 0 0 4.925 0 11s4.925 11 11 11zm0-1c5.523 0 10-4.477 10-10S16.523 1 11 1 1 5.477 1 11s4.477 10 10 10zm-.09-14.937c.36.297 1.11.922 1.11 2.11 0 1.158-.657 1.705-1.314 2.22-.203.204-.438.423-.438.767 0 .344.235.532.406.673l.564.437c.688.58 1.313 1.11 1.313 2.19 0 1.47-1.422 2.955-4.112 2.955-2.266 0-3.36-1.08-3.36-2.236 0-.564.28-1.36 1.203-1.91.97-.593 2.284-.67 2.987-.718-.218-.282-.47-.58-.47-1.063 0-.267.08-.424.158-.61-.172.014-.344.03-.5.03-1.658 0-2.596-1.236-2.596-2.455 0-.72.327-1.517 1-2.095.89-.735 1.954-.86 2.798-.86h3.22l-1 .563h-.97zm-.657 3.972c.36-.36.39-.86.39-1.142 0-1.126-.672-2.877-1.97-2.877-.406 0-.844.203-1.095.516-.265.33-.344.75-.344 1.157 0 1.047.61 2.783 1.955 2.783.39 0 .812-.188 1.063-.438zm-.454 2.97c-.126-.016-.204-.016-.36-.016-.14 0-.986.03-1.642.25-.344.125-1.345.5-1.345 1.61s1.08 1.908 2.752 1.908c1.5 0 2.298-.72 2.298-1.69 0-.796-.516-1.218-1.704-2.063z"/></g></svg>