<svg xmlns="http://www.w3.org/2000/svg" width="22" height="22" viewBox="0 0 22 22"><path fill-rule="evenodd" d="M11 22c6.075 0 11-4.925 11-11S17.075 0 11 0 0 4.925 0 11s4.925 11 11 11zm0-1c5.523 0 10-4.477 10-10S16.523 1 11 1 1 5.477 1 11s4.477 10 10 10z"/><path d="M8.267 15.483H6.364v-6.09h1.903v6.09zm-1-6.852h-.013c-.69 0-1.136-.465-1.136-1.055 0-.602.46-1.058 1.163-1.058.703 0 1.134.455 1.148 1.056 0 .59-.446 1.058-1.16 1.058zm8.614 6.853h-2.158V12.33c0-.824-.337-1.387-1.08-1.387-.566 0-.88.38-1.03.746-.054.13-.045.312-.045.497v3.295H9.43s.028-5.583 0-6.09h2.137v.956c.126-.42.81-1.015 1.9-1.015 1.352 0 2.415.877 2.415 2.763v3.387z"/></svg>