<svg xmlns="http://www.w3.org/2000/svg" width="12" height="22" viewBox="0 0 12 22" xmlns:xlink="http://www.w3.org/1999/xlink"><defs><path id="a" d="M0 2v18c0 2 1.846 2 1.846 2h8.308S12 22 12 20V2c0-2-1.846-2-1.846-2H1.846S0 0 0 2zm10.154-1c.1 0 .315.04.51.144.275.15.413.374.413.856v18c0 .482-.138.707-.413.856-.195.105-.41.144-.51.144H1.846c-.1 0-.315-.04-.51-.144-.275-.15-.413-.374-.413-.856V2c0-.482.138-.707.413-.856.195-.105.41-.144.51-.144h8.308zM6 20.5c.51 0 .923-.448.923-1s-.413-1-.923-1-.923.448-.923 1 .413 1 .923 1zm-2.103-19c-.113 0-.205.097-.205.22v.06c0 .122.093.22.205.22h4.206c.113 0 .205-.096.205-.22v-.06c0-.12-.093-.22-.205-.22H3.897zm-2.974 1v1h10.154v-1H.923zm0 14.5v1h10.154v-1H.923z"/></defs><g fill="none"><g><use fill="#000" xlink:href="#a"/><use xlink:href="#a"/></g></g></svg>