<svg xmlns="http://www.w3.org/2000/svg" width="22" height="22" viewBox="0 0 22 22"><g fill="none" fill-rule="evenodd"><path fill="#000" d="M11 22c6.075 0 11-4.925 11-11S17.075 0 11 0 0 4.925 0 11s4.925 11 11 11zm0-1c5.523 0 10-4.477 10-10S16.523 1 11 1 1 5.477 1 11s4.477 10 10 10zm4.052-14.24c-.443-.504-1.074-.825-1.774-.837-1.342-.022-2.43 1.112-2.43 2.533 0 .202.022.4.063.588-2.02-.13-3.81-1.183-5.008-2.77-.21.38-.33.825-.33 1.3 0 .9.43 1.7 1.082 2.173-.4-.018-.773-.14-1.1-.337v.033c0 1.258.836 2.313 1.948 2.558-.204.06-.418.09-.64.088-.157 0-.31-.02-.457-.05.31 1.032 1.207 1.784 2.27 1.81-.832.69-1.88 1.1-3.018 1.098-.196 0-.39-.013-.58-.037 1.075.737 2.353 1.167 3.725 1.167 4.47 0 6.915-3.89 6.915-7.264 0-.11-.002-.22-.007-.33.475-.354.887-.797 1.213-1.304-.436.196-.904.326-1.396.38.502-.308.887-.802 1.07-1.395-.47.285-.99.49-1.545.595z"/></g></svg>