<svg xmlns="http://www.w3.org/2000/svg" width="22" height="22" viewBox="0 0 22 22" xmlns:xlink="http://www.w3.org/1999/xlink"><defs><path id="a" d="M11 22c6.075 0 11-4.925 11-11S17.075 0 11 0 0 4.925 0 11s4.925 11 11 11zm0-1c5.523 0 10-4.477 10-10S16.523 1 11 1 1 5.477 1 11s4.477 10 10 10zm2.25-15.78c-.54.15.08 1.575-.488 1.456-.563-.118-1.24-.673-1.606-.99-.433-.374.736-.343.954-.65.26-.37.035-.722-.18-.79-.815-.262-1.947.35-2.482.215-.945-.237-.508-.468-1.526-.61-.508-.07-1.062.296-1.905.13-1.028-.203-1.02 1.726-1.403 2.177.962-.84 2.91-.225 2.718.52-.25.97 1.53 2.497 1.812 3.196.148.366.76-.396 1.255.987.09.43.628.145 1.092.23.568.102.89.566 1.08.672.567.32-2.32.995.52 3.07-.07 1.032-.03 1.993-.138 2.167-.25.397-.118.65 0 .777-.678.174.135 1.618.678 1.288.333-.203 0-.624.29-1.025-.29-.7 2.123-2.616 2.567-2.95 0 0-.016-.84.657-1.37.334-.263-.504-.796-1.077-.612 0 0-.034-1.083-1.603-.948-.6.052-1-.325-1-.325s-.513-.975-1.076-.975c-.09 0 .07-.36-.28-.544-.274-.144-1.04-.153-1.04-.443 0-.29.742-.175 1.204-.54.14-.11.343.43.488.31.165-.14-.182-.396.33-.83.094-.08.597-.62 1.024-.972.154-.126.457-.028.504-.156.178-.483-.648-.076-.37-.69.1-.22 1.63.387 1.717.3.212-.214-1.13-.286-.574-.618.236-.14-1.606-1.602-2.144-1.455z"/></defs><g fill="none" fill-rule="evenodd"><g><use fill="#000" xlink:href="#a"/><use xlink:href="#a"/></g></g></svg>