<svg xmlns="http://www.w3.org/2000/svg" height="80" width="162" version="1.1" xmlns:cc="http://creativecommons.org/ns#" xmlns:xlink="http://www.w3.org/1999/xlink" xmlns:dc="http://purl.org/dc/elements/1.1/">
 <defs>
  <linearGradient id="linearGradient9972-7" y2="141.75" gradientUnits="userSpaceOnUse" x2="132.28" y1="215.55" x1="174.07">
   <stop stop-color="#FB7655" offset="0"/>
   <stop stop-color="#E42B1E" offset="0.41"/>
   <stop stop-color="#900" offset="0.99"/>
   <stop stop-color="#900" offset="1"/>
  </linearGradient>
  <linearGradient id="linearGradient9974-5" y2="117.41" gradientUnits="userSpaceOnUse" x2="141.03" y1="153.56" x1="194.9">
   <stop stop-color="#871101" offset="0"/>
   <stop stop-color="#911209" offset="0.99"/>
   <stop stop-color="#911209" offset="1"/>
  </linearGradient>
  <linearGradient id="linearGradient9976-8" y2="181.64" gradientUnits="userSpaceOnUse" x2="97.93" y1="217.79" x1="151.8">
   <stop stop-color="#871101" offset="0"/>
   <stop stop-color="#911209" offset="0.99"/>
   <stop stop-color="#911209" offset="1"/>
  </linearGradient>
  <linearGradient id="linearGradient9978-6" y2="181.66" gradientUnits="userSpaceOnUse" x2="47.047" y1="127.39" x1="38.696">
   <stop stop-color="#FFF" offset="0"/>
   <stop stop-color="#E57252" offset="0.23"/>
   <stop stop-color="#DE3B20" offset="0.46"/>
   <stop stop-color="#A60003" offset="0.99"/>
   <stop stop-color="#A60003" offset="1"/>
  </linearGradient>
  <linearGradient id="linearGradient9980-3" y2="132.1" gradientUnits="userSpaceOnUse" x2="99.21" y1="76.715" x1="96.133">
   <stop stop-color="#FFF" offset="0"/>
   <stop stop-color="#E4714E" offset="0.23"/>
   <stop stop-color="#BE1A0D" offset="0.56"/>
   <stop stop-color="#A80D00" offset="0.99"/>
   <stop stop-color="#A80D00" offset="1"/>
  </linearGradient>
  <linearGradient id="linearGradient9982-3" y2="65.216" gradientUnits="userSpaceOnUse" x2="156.31" y1="25.521" x1="147.1">
   <stop stop-color="#FFF" offset="0"/>
   <stop stop-color="#E46342" offset="0.18"/>
   <stop stop-color="#C82410" offset="0.4"/>
   <stop stop-color="#A80D00" offset="0.99"/>
   <stop stop-color="#A80D00" offset="1"/>
  </linearGradient>
  <linearGradient id="linearGradient9984-7" y2="-8.3048" gradientUnits="userSpaceOnUse" x2="158.67" y1="11.542" x1="118.98">
   <stop stop-color="#FFF" offset="0"/>
   <stop stop-color="#C81F11" offset="0.54"/>
   <stop stop-color="#BF0905" offset="0.99"/>
   <stop stop-color="#BF0905" offset="1"/>
  </linearGradient>
  <linearGradient id="linearGradient9986-2" y2="146.26" gradientUnits="userSpaceOnUse" x2="7.1702" y1="113.55" x1="3.9033">
   <stop stop-color="#FFF" offset="0"/>
   <stop stop-color="#DE4024" offset="0.31"/>
   <stop stop-color="#BF190B" offset="0.99"/>
   <stop stop-color="#BF190B" offset="1"/>
  </linearGradient>
  <linearGradient id="linearGradient9988-5" y2="-2.8093" gradientUnits="userSpaceOnUse" x2="135.02" y1="155.1" x1="-18.556">
   <stop stop-color="#BD0012" offset="0"/>
   <stop stop-color="#FFF" offset="0.07"/>
   <stop stop-color="#FFF" offset="0.17"/>
   <stop stop-color="#C82F1C" offset="0.27"/>
   <stop stop-color="#820C01" offset="0.33"/>
   <stop stop-color="#A31601" offset="0.46"/>
   <stop stop-color="#B31301" offset="0.72"/>
   <stop stop-color="#E82609" offset="0.99"/>
   <stop stop-color="#E82609" offset="1"/>
  </linearGradient>
  <linearGradient id="linearGradient9990-3" y2="159.62" gradientUnits="userSpaceOnUse" x2="52.818" y1="171.03" x1="99.075">
   <stop stop-color="#8C0C01" offset="0"/>
   <stop stop-color="#990C00" offset="0.54"/>
   <stop stop-color="#A80D0E" offset="0.99"/>
   <stop stop-color="#A80D0E" offset="1"/>
  </linearGradient>
  <linearGradient id="linearGradient9992-8" y2="78.684" gradientUnits="userSpaceOnUse" x2="137.43" y1="115.51" x1="178.53">
   <stop stop-color="#7E110B" offset="0"/>
   <stop stop-color="#9E0C00" offset="0.99"/>
   <stop stop-color="#9E0C00" offset="1"/>
  </linearGradient>
  <linearGradient id="linearGradient9994-4" y2="26.054" gradientUnits="userSpaceOnUse" x2="173.15" y1="47.937" x1="193.62">
   <stop stop-color="#79130D" offset="0"/>
   <stop stop-color="#9E120B" offset="0.99"/>
   <stop stop-color="#9E120B" offset="1"/>
  </linearGradient>
  <radialGradient id="radialGradient9996-2" gradientUnits="userSpaceOnUse" cy="79.388" cx="143.83" r="50.358">
   <stop stop-color="#A80D00" offset="0"/>
   <stop stop-color="#7E0E08" offset="0.99"/>
   <stop stop-color="#7E0E08" offset="1"/>
  </radialGradient>
  <radialGradient id="radialGradient9998-1" gradientUnits="userSpaceOnUse" cy="145.75" cx="74.092" r="66.944">
   <stop stop-color="#A30C00" offset="0"/>
   <stop stop-color="#800E08" offset="0.99"/>
   <stop stop-color="#800E08" offset="1"/>
  </radialGradient>
  <linearGradient id="linearGradient10000-8" y2="140.74" gradientUnits="userSpaceOnUse" x2="9.9887" y1="197.34" x1="26.67">
   <stop stop-color="#8B2114" offset="0"/>
   <stop stop-color="#9E100A" offset="0.43"/>
   <stop stop-color="#B3100C" offset="0.99"/>
   <stop stop-color="#B3100C" offset="1"/>
  </linearGradient>
  <linearGradient id="linearGradient8079" y2="26.306" gradientUnits="userSpaceOnUse" y1="9.7979" x2="192.04" x1="154.64">
   <stop stop-color="#B31000" offset="0"/>
   <stop stop-color="#910F08" offset="0.44"/>
   <stop stop-color="#791C12" offset="0.99"/>
   <stop stop-color="#791C12" offset="1"/>
  </linearGradient>
 </defs>
 <g transform="translate(0,-972.36218)">
  <g fill-rule="evenodd" clip-rule="evenodd" transform="matrix(0.17955141,0,0,0.17955141,63.21274,994.6243)">
   <polygon points="153.5,130.41,40.38,197.58,186.85,187.64,198.13,39.95" fill="url(#linearGradient9972-7)"/>
   <polygon points="140.21,145.93,187.09,187.54,174.5,100.65" fill="url(#linearGradient9974-5)"/>
   <polygon points="40.87,197.39,187.26,187.54,95.03,180.3" fill="url(#linearGradient9976-8)"/>
   <polygon points="13.34,132.77,41,197.41,64.04,121.93" fill="url(#linearGradient9978-6)"/>
   <polygon points="58.33,120.01,140.2,146.18,119,63.14" fill="url(#linearGradient9980-3)"/>
   <polygon points="120,69.1,193.32,64.31,135.97,17.47" fill="url(#linearGradient9982-3)"/>
   <polygon points="111.49,0.52,166.5,0.77,132.77,19.41" fill="url(#linearGradient9984-7)"/>
   <polygon points="2.7,101.62,0,158.09,14.13,132.32" fill="url(#linearGradient9986-2)"/>
   <path d="m1.94,100.65,11.5,32.62,49.97-11.211,57.05-53.02l16.1-51.14-25.35-17.9-43.101,16.13c-13.579,12.63-39.929,37.62-40.879,38.09-0.94,0.48-17.4,31.59-25.29,46.43z" fill="#FFF"/>
   <path d="m42.32,42.05c29.43-29.18,67.37-46.42,81.93-31.73,14.551,14.69-0.88,50.39-30.31,79.56s-66.9,47.36-81.45,32.67c-14.56-14.68,0.4-51.33,29.83-80.5z" fill="url(#linearGradient9988-5)"/>
   <path d="m41,197.38,22.86-75.72,75.92,24.39c-27.45,25.74-57.98,47.5-98.78,51.33z" fill="url(#linearGradient9990-3)"/>
   <path d="m120.56,68.89,19.49,77.2c22.93-24.11,43.51-50.03,53.59-82.09l-73.079,4.89z" fill="url(#linearGradient9992-8)"/>
   <path d="m193.44,64.39c7.8-23.54,9.6-57.31-27.181-63.58l-30.18,16.67,57.361,46.91z" fill="url(#linearGradient9994-4)"/>
   <path d="m0,157.75c1.08,38.851,29.11,39.43,41.05,39.771l-27.58-64.41-13.47,24.64z" fill="#9e1209"/>
   <path d="m120.67,69.01c17.62,10.83,53.131,32.58,53.851,32.98,1.119,0.63,15.31-23.93,18.53-37.81l-72.381,4.83z" fill="url(#radialGradient9996-2)"/>
   <path d="m63.83,121.66,30.56,58.96c18.07-9.8,32.22-21.74,45.18-34.53l-75.74-24.43z" fill="url(#radialGradient9998-1)"/>
   <path d="m13.35,133.19-4.33,51.56c8.17,11.16,19.41,12.13,31.2,11.26-8.53-21.23-25.57-63.68-26.87-62.82z" fill="url(#linearGradient10000-8)"/>
   <path d="m135.9,17.61,60.71,8.52c-3.24-13.73-13.19-22.59-30.15-25.36l-30.56,16.84z" fill="url(#linearGradient8079)"/>
  </g>
 </g>
</svg>
