<svg xmlns="http://www.w3.org/2000/svg"><symbol viewBox="0 0 30 30" id="icon-delicious"><title>delicious</title><path style="enable-background:accumulate;color:#000000;" d="m24,12.676a11.87,11.87,0,1,1,-23.74,0,11.87,11.87,0,1,1,23.74,0z" fill-rule="nonzero" transform="matrix(1.1794532,0,0,-1.1794532,0.69365548,29.950336)" fill="#FFF"/><path d="M15,0c-8.2843,0-15,6.7157-15,15,0,8.284,6.7157,15,15,15,8.284,0,15-6.716,15-15,0-8.2843-6.716-15-15-15zm8.5471,23.547c-2.283,2.283-5.318,3.54-8.547,3.54v-12.087h-12.087l-0.000072,0.00007v-0.00007c0-3.2286,1.2573-6.264,3.5403-8.5471,2.2831-2.283,5.3181-3.5403,8.5471-3.5403h0.000073v12.087h12.087c0,3.2286-1.2573,6.264-3.5403,8.5471z"/></symbol><symbol id="icon-github"><title>github</title> <path style="color:#000000;enable-background:accumulate;" fill-rule="nonzero" fill="#FFF" d="M29.7,15c0,8.119-6.581,14.7-14.7,14.7-8.1186,0-14.7-6.581-14.7-14.7,0-8.1186,6.5814-14.7,14.7-14.7s14.7,6.5814,14.7,14.7z"/> <path fill="#000" d="M15,0c-8.2838,0-15,6.7164-15,15,0,6.627,4.2979,12.251,10.259,14.234,0.749,0.139,0.991-0.325,0.991-0.722v-2.7927c-4.1724,0.9087-5.0416-1.7693-5.0416-1.7693-0.6811-1.734-1.6649-2.196-1.6649-2.196-1.3612-0.93,0.1025-0.911,0.1025-0.911,1.5064,0.1062,2.2998,1.5466,2.2998,1.5466,1.3378,2.2924,3.5082,1.6297,4.3652,1.2464,0.13427-0.9694,0.52238-1.6309,0.95214-2.0057-3.3326-0.3784-6.8336-1.665-6.8336-7.4133,0-1.6382,0.58595-2.9761,1.5455-4.0259-0.15626-0.3784-0.66903-1.9044,0.1441-3.9699,0,0,1.2598-0.4028,4.1259,1.5381,1.197-0.3323,2.481-0.4995,3.755-0.5056,1.2744,0.01,2.5598,0.1733,3.7573,0.5053,2.8638-1.9409,4.1211-1.5381,4.1211-1.5381,0.81677,2.0654,0.30277,3.5914,0.14774,3.9699,0.96197,1.0498,1.5442,2.3877,1.5442,4.0259,0,5.7617-3.5095,7.03-6.8493,7.4011,0.53702,0.4652,1.0291,1.3793,1.0291,2.7783v4.1162c0,0.3991,0.24037,0.8667,1.0009,0.7203,5.957-1.986,10.249-7.606,10.249-14.232,0-8.2835-6.716-15-15-15z"/> </symbol><symbol id="icon-google-plus"><title>google-plus</title> <g transform="translate(0,-30)"> <g transform="translate(-124.0053,-992.3622)"> <path d="m139.0053,1052.3637c8.285,0,14.999-6.717,14.999-15.002,0-8.284-6.714-15.001-14.999-15.001-8.283,0-14.999,6.717-14.999,15.001,0,8.286,6.716,15.002,14.999,15.002" fill="#000"/> <path d="m136.5253,1044.0817c-1.784,0-3.071-1.129-3.071-2.484,0-1.33,1.597-2.436,3.38-2.417,0.417,0.01,0.805,0.072,1.156,0.187,0.968,0.673,1.662,1.052,1.857,1.82,0.037,0.155,0.057,0.315,0.057,0.479-0.001,1.355-0.873,2.415-3.379,2.415m0.468-7.952c-1.197-0.036-2.336-1.339-2.541-2.91-0.207-1.572,0.596-2.774,1.792-2.741,1.196,0.036,2.335,1.298,2.54,2.87,0.207,1.572-0.595,2.817-1.791,2.781m2.481,2.327c-0.42-0.297-1.222-1.021-1.222-1.443,0-0.5,0.142-0.744,0.892-1.33,0.768-0.602,1.312-1.445,1.312-2.426,0-1.17-0.521-2.309-1.498-2.685h1.473l1.039-0.75h-4.646c-2.082,0-4.042,1.577-4.042,3.405,0,1.867,1.42,3.375,3.539,3.375,0.146,0,0.29,0,0.43-0.012-0.137,0.262-0.236,0.56-0.236,0.865,0,0.519,0.279,0.941,0.633,1.284-0.268,0-0.524,0.01-0.805,0.01-2.58,0-4.564,1.642-4.564,3.347,0,1.679,2.176,2.728,4.756,2.728,2.939,0,4.563-1.67,4.563-3.348,0-1.345-0.396-2.151-1.624-3.019m6.759-2.189h-1.81v-1.809h-1.454v1.809h-1.809v1.455h1.809v1.81h1.454v-1.81h1.81v-1.455z" fill="#FFF"/> </g> </g> </symbol><symbol id="icon-linkedin"><title>linkedin</title> <g transform="translate(0,-30)"> <g transform="translate(-93.005301,-992.3622)"> <path fill="#000" d="m108.0053,1052.3637c8.285,0,14.999-6.717,14.999-15.001,0-8.285-6.714-15.002-14.999-15.002-8.282998,0-14.998998,6.717-14.998998,15.002,0,8.284,6.716,15.001,14.998998,15.001"/> <path fill="#FFF" d="m103.8083,1043.6357-2.924,0,0-9.357,2.924,0,0,9.357zm-1.536-10.527-0.021,0c-1.059,0-1.744-0.716-1.744-1.622,0-0.925,0.706-1.625,1.786-1.625,1.078,0,1.741,0.699,1.762,1.622-0.001,0.906-0.685,1.625-1.783,1.625zm13.233,10.527-3.316,0,0-4.842c0-1.268-0.518-2.133-1.658-2.133-0.871,0-1.356,0.584-1.583,1.146-0.085,0.201-0.071,0.482-0.071,0.766v5.062h-3.283s0.043-8.577,0-9.357h3.283v1.469c0.194-0.643,1.244-1.559,2.918-1.559,2.078,0,3.711,1.347,3.711,4.244v5.204h-0.001z"/> </g> </g> </symbol><symbol id="icon-stackoverflow"><title>stackoverflow</title> <g transform="translate(0,-30)"> <g transform="translate(-62.006302,-992.3622)"> <ellipse d="M 30,15 C 30,23.284271 23.284271,30 15,30 6.7157288,30 0,23.284271 0,15 0,6.7157288 6.7157288,0 15,0 23.284271,0 30,6.7157288 30,15 z" cx="15" cy="15" rx="15" transform="translate(62.006302,1022.3622)" ry="15" stroke-width="0" fill="#000"/> <g fill="#FFF" transform="matrix(0.31868329,0,0,0.31868329,66.741201,1027.1643)"> <path d="m9.305,36.848,4.4013,0.04316-0.15344,19.598,29.291,0,0-19.528,4.6378,0,0,24.287-38.201,0,0.02378-24.401-0.00001-0.00001z"/> <rect y="48.433998" x="16.482" height="4.8818998" width="22.945"/> <rect transform="matrix(0.9953749,0.09606666,-0.09606666,0.9953749,0,0)" height="5.0039001" width="23.066999" y="37.830002" x="20.75"/> <rect transform="matrix(0.96240291,0.27162592,-0.27162592,0.96240291,0,0)" height="5.0039001" width="23.066999" y="23.402" x="26.473"/> <rect transform="matrix(0.85597805,0.51701216,-0.51701216,0.85597805,0,0)" height="5.0039001" width="23.066999" y="3.1536" x="30.528999"/> <rect transform="matrix(0.58242689,0.81288309,-0.81288309,0.58242689,0,0)" height="5.0039001" width="23.066999" y="-24.475" x="27.191999"/> <rect transform="matrix(0.16480989,0.98632535,-0.98632535,0.16480989,0,0)" height="5.0039001" width="23.066999" y="-50.183998" x="11.175"/> </g> </g> </g> </symbol><symbol id="icon-twitter"><title>twitter</title> <g transform="translate(0,-30)"> <g transform="translate(-195.02584,34.198966)"> <path d="m210.02584,25.802034c8.284,0,14.999-6.715,14.999-15.001,0-8.2840004-6.715-15.0010004-14.999-15.0010004-8.283,0-14.999,6.717-14.999,15.0010004,0,8.286,6.716,15.001,14.999,15.001" fill="#000"/> <path d="m217.55084,6.8700336c-0.553,0.246-1.147,0.412-1.771,0.486,0.638-0.382,1.126-0.985,1.355-1.705-0.597,0.354-1.255,0.609-1.958,0.747-0.561-0.599-1.363-0.974-2.25-0.974-1.701,0-3.081,1.381-3.081,3.083,0,0.242,0.026,0.478,0.079,0.702-2.562-0.129-4.832-1.354-6.354-3.222-0.266,0.458-0.418,0.986-0.418,1.552,0,1.068,0.545,2.012,1.372,2.5660004-0.505-0.016-0.981-0.1560004-1.397-0.3860004v0.038c0,1.4940004,1.062,2.7400004,2.474,3.0220004-0.259,0.073-0.53,0.108-0.812,0.108-0.199,0-0.393-0.018-0.58-0.055,0.393,1.225,1.529,2.117,2.879,2.141-1.055,0.827-2.385,1.32-3.828,1.32-0.249,0-0.496-0.014-0.735-0.043,1.364,0.874,2.983,1.385,4.725,1.385,5.671,0,8.771-4.697,8.771-8.7710004,0-0.135-0.003-0.268-0.009-0.398,0.603-0.434,1.126-0.977,1.538-1.596" fill="#FFF"/> </g> </g> </symbol></svg>