<svg xmlns="http://www.w3.org/2000/svg" height="80" width="162" version="1.1" xmlns:cc="http://creativecommons.org/ns#" xmlns:dc="http://purl.org/dc/elements/1.1/">
 <g transform="translate(0,-972.36218)">
  <g fill="none" transform="matrix(0.12635474,0,0,0.12635474,62.19892,985.81846)">
   <g>
    <path fill="#131313" d="m233.16,15.681-24.688,0,25.674,27.859,0,13.261-52.882,0,0-15.526,25.669,0-25.669-27.86,0-13.28,51.896,0,0,15.546,0,0zm-62.378,0-24.688,0,25.673,27.859,0,13.261-52.882,0,0-15.526,25.672,0-25.672-27.86,0-13.28,51.897,0,0,15.546zm-61.768,0.631-26.64,0,0,24.313,26.64,0,0,16.176-45.574,0,0-56.666,45.574,0,0,16.177z"/>
    <path fill="#1572b6" d="M27.142,386.29,0.071,82.67h297.45l-27.096,303.57-121.81,33.77-121.47-33.72z"/>
    <path fill="#33a9dc" d="m148.8,394.2,98.427-27.288,23.157-259.42-121.58,0,0,286.7z"/>
    <g transform="translate(55,142)">
     <path fill="#FFF" d="m93.797,75.496,49.275,0,3.403-38.132-52.678,0,0-37.239,0.129,0,93.246,0-0.893,9.991-9.152,102.62-83.33,0,0-37.236z"/>
     <path fill="#ebebeb" d="m94.02,172.2-0.163,0.046-41.472-11.199-2.652-29.698-20.151,0-17.228,0,5.216,58.467,76.278,21.176,0.172-0.048,0-38.744z"/>
     <path fill="#FFF" d="m139.91,111.16-4.484,49.87-41.532,11.21,0,38.742,76.339-21.158,0.56-6.29,6.478-72.374-37.361,0z"/>
     <path fill="#ebebeb" d="m93.926,0.125,0,23.128,0,14.019,0,0.092-89.828,0-0.119,0-0.747-8.37-1.697-18.878-0.89-9.991,93.281,0z"/>
     <path fill="#ebebeb" d="m93.797,75.5,0,23.129,0,14.017,0,0.092-40.828,0-0.119,0-0.746-8.369-1.698-18.878-0.89-9.991,44.281,0z"/>
    </g>
   </g>
  </g>
 </g>
</svg>
