<!-- The icon can be used freely in both personal and commercial projects with no attribution required, but always appreciated. 
You may NOT sub-license, resell, rent, redistribute or otherwise transfer the icon without express written permission from iconmonstr.com -->
<svg enable-background="new 0 0 512 512" xml:space="preserve" height="30" width="30" version="1.1" y="0px" x="0px" xmlns:cc="http://creativecommons.org/ns#" xmlns:dc="http://purl.org/dc/elements/1.1/" viewBox="0 0 30 30"><path style="enable-background:accumulate;color:#000000;" d="m24,12.676a11.87,11.87,0,1,1,-23.74,0,11.87,11.87,0,1,1,23.74,0z" fill-rule="nonzero" transform="matrix(1.1794532,0,0,-1.1794532,0.69365548,29.950336)" fill="#FFF"/><path d="M15,0c-8.2843,0-15,6.7157-15,15,0,8.284,6.7157,15,15,15,8.284,0,15-6.716,15-15,0-8.2843-6.716-15-15-15zm8.5471,23.547c-2.283,2.283-5.318,3.54-8.547,3.54v-12.087h-12.087l-0.000072,0.00007v-0.00007c0-3.2286,1.2573-6.264,3.5403-8.5471,2.2831-2.283,5.3181-3.5403,8.5471-3.5403h0.000073v12.087h12.087c0,3.2286-1.2573,6.264-3.5403,8.5471z"/></svg>
