<svg xmlns="http://www.w3.org/2000/svg" height="30" width="30" version="1.1" xmlns:cc="http://creativecommons.org/ns#" xmlns:dc="http://purl.org/dc/elements/1.1/">
 <path style="color:#000000;enable-background:accumulate;" fill-rule="nonzero" fill="#FFF" d="M29.7,15c0,8.119-6.581,14.7-14.7,14.7-8.1186,0-14.7-6.581-14.7-14.7,0-8.1186,6.5814-14.7,14.7-14.7s14.7,6.5814,14.7,14.7z"/>
 <path fill="#000" d="M15,0c-8.2838,0-15,6.7164-15,15,0,6.627,4.2979,12.251,10.259,14.234,0.749,0.139,0.991-0.325,0.991-0.722v-2.7927c-4.1724,0.9087-5.0416-1.7693-5.0416-1.7693-0.6811-1.734-1.6649-2.196-1.6649-2.196-1.3612-0.93,0.1025-0.911,0.1025-0.911,1.5064,0.1062,2.2998,1.5466,2.2998,1.5466,1.3378,2.2924,3.5082,1.6297,4.3652,1.2464,0.13427-0.9694,0.52238-1.6309,0.95214-2.0057-3.3326-0.3784-6.8336-1.665-6.8336-7.4133,0-1.6382,0.58595-2.9761,1.5455-4.0259-0.15626-0.3784-0.66903-1.9044,0.1441-3.9699,0,0,1.2598-0.4028,4.1259,1.5381,1.197-0.3323,2.481-0.4995,3.755-0.5056,1.2744,0.01,2.5598,0.1733,3.7573,0.5053,2.8638-1.9409,4.1211-1.5381,4.1211-1.5381,0.81677,2.0654,0.30277,3.5914,0.14774,3.9699,0.96197,1.0498,1.5442,2.3877,1.5442,4.0259,0,5.7617-3.5095,7.03-6.8493,7.4011,0.53702,0.4652,1.0291,1.3793,1.0291,2.7783v4.1162c0,0.3991,0.24037,0.8667,1.0009,0.7203,5.957-1.986,10.249-7.606,10.249-14.232,0-8.2835-6.716-15-15-15z"/>
</svg>
