
<svg xmlns="http://www.w3.org/2000/svg" height="30" width="30" version="1.1" xmlns:cc="http://creativecommons.org/ns#" xmlns:dc="http://purl.org/dc/elements/1.1/">
 <g transform="translate(0,-30)">
  <g transform="translate(-124.0053,-992.3622)">
   <path d="m139.0053,1052.3637c8.285,0,14.999-6.717,14.999-15.002,0-8.284-6.714-15.001-14.999-15.001-8.283,0-14.999,6.717-14.999,15.001,0,8.286,6.716,15.002,14.999,15.002" fill="#000"/>
   <path d="m136.5253,1044.0817c-1.784,0-3.071-1.129-3.071-2.484,0-1.33,1.597-2.436,3.38-2.417,0.417,0.01,0.805,0.072,1.156,0.187,0.968,0.673,1.662,1.052,1.857,1.82,0.037,0.155,0.057,0.315,0.057,0.479-0.001,1.355-0.873,2.415-3.379,2.415m0.468-7.952c-1.197-0.036-2.336-1.339-2.541-2.91-0.207-1.572,0.596-2.774,1.792-2.741,1.196,0.036,2.335,1.298,2.54,2.87,0.207,1.572-0.595,2.817-1.791,2.781m2.481,2.327c-0.42-0.297-1.222-1.021-1.222-1.443,0-0.5,0.142-0.744,0.892-1.33,0.768-0.602,1.312-1.445,1.312-2.426,0-1.17-0.521-2.309-1.498-2.685h1.473l1.039-0.75h-4.646c-2.082,0-4.042,1.577-4.042,3.405,0,1.867,1.42,3.375,3.539,3.375,0.146,0,0.29,0,0.43-0.012-0.137,0.262-0.236,0.56-0.236,0.865,0,0.519,0.279,0.941,0.633,1.284-0.268,0-0.524,0.01-0.805,0.01-2.58,0-4.564,1.642-4.564,3.347,0,1.679,2.176,2.728,4.756,2.728,2.939,0,4.563-1.67,4.563-3.348,0-1.345-0.396-2.151-1.624-3.019m6.759-2.189h-1.81v-1.809h-1.454v1.809h-1.809v1.455h1.809v1.81h1.454v-1.81h1.81v-1.455z" fill="#FFF"/>
  </g>
 </g>
</svg>
