
<svg xmlns="http://www.w3.org/2000/svg" height="30" width="30" version="1.1" xmlns:cc="http://creativecommons.org/ns#" xmlns:dc="http://purl.org/dc/elements/1.1/">
 <g transform="translate(0,-30)">
  <g transform="translate(-93.005301,-992.3622)">
   <path fill="#000" d="m108.0053,1052.3637c8.285,0,14.999-6.717,14.999-15.001,0-8.285-6.714-15.002-14.999-15.002-8.282998,0-14.998998,6.717-14.998998,15.002,0,8.284,6.716,15.001,14.998998,15.001"/>
   <path fill="#FFF" d="m103.8083,1043.6357-2.924,0,0-9.357,2.924,0,0,9.357zm-1.536-10.527-0.021,0c-1.059,0-1.744-0.716-1.744-1.622,0-0.925,0.706-1.625,1.786-1.625,1.078,0,1.741,0.699,1.762,1.622-0.001,0.906-0.685,1.625-1.783,1.625zm13.233,10.527-3.316,0,0-4.842c0-1.268-0.518-2.133-1.658-2.133-0.871,0-1.356,0.584-1.583,1.146-0.085,0.201-0.071,0.482-0.071,0.766v5.062h-3.283s0.043-8.577,0-9.357h3.283v1.469c0.194-0.643,1.244-1.559,2.918-1.559,2.078,0,3.711,1.347,3.711,4.244v5.204h-0.001z"/>
  </g>
 </g>
</svg>
