
<svg xmlns="http://www.w3.org/2000/svg" height="30" width="30" version="1.1" xmlns:cc="http://creativecommons.org/ns#" xmlns:dc="http://purl.org/dc/elements/1.1/">
 <g transform="translate(0,-30)">
  <g transform="translate(-62.006302,-992.3622)">
   <ellipse d="M 30,15 C 30,23.284271 23.284271,30 15,30 6.7157288,30 0,23.284271 0,15 0,6.7157288 6.7157288,0 15,0 23.284271,0 30,6.7157288 30,15 z" cx="15" cy="15" rx="15" transform="translate(62.006302,1022.3622)" ry="15" stroke-width="0" fill="#000"/>
   <g fill="#FFF" transform="matrix(0.31868329,0,0,0.31868329,66.741201,1027.1643)">
    <path d="m9.305,36.848,4.4013,0.04316-0.15344,19.598,29.291,0,0-19.528,4.6378,0,0,24.287-38.201,0,0.02378-24.401-0.00001-0.00001z"/>
    <rect y="48.433998" x="16.482" height="4.8818998" width="22.945"/>
    <rect transform="matrix(0.9953749,0.09606666,-0.09606666,0.9953749,0,0)" height="5.0039001" width="23.066999" y="37.830002" x="20.75"/>
    <rect transform="matrix(0.96240291,0.27162592,-0.27162592,0.96240291,0,0)" height="5.0039001" width="23.066999" y="23.402" x="26.473"/>
    <rect transform="matrix(0.85597805,0.51701216,-0.51701216,0.85597805,0,0)" height="5.0039001" width="23.066999" y="3.1536" x="30.528999"/>
    <rect transform="matrix(0.58242689,0.81288309,-0.81288309,0.58242689,0,0)" height="5.0039001" width="23.066999" y="-24.475" x="27.191999"/>
    <rect transform="matrix(0.16480989,0.98632535,-0.98632535,0.16480989,0,0)" height="5.0039001" width="23.066999" y="-50.183998" x="11.175"/>
   </g>
  </g>
 </g>
</svg>
