
<svg xmlns="http://www.w3.org/2000/svg" height="30" width="30" version="1.1" xmlns:cc="http://creativecommons.org/ns#" xmlns:dc="http://purl.org/dc/elements/1.1/">
 <g transform="translate(0,-30)">
  <g transform="translate(-195.02584,34.198966)">
   <path d="m210.02584,25.802034c8.284,0,14.999-6.715,14.999-15.001,0-8.2840004-6.715-15.0010004-14.999-15.0010004-8.283,0-14.999,6.717-14.999,15.0010004,0,8.286,6.716,15.001,14.999,15.001" fill="#000"/>
   <path d="m217.55084,6.8700336c-0.553,0.246-1.147,0.412-1.771,0.486,0.638-0.382,1.126-0.985,1.355-1.705-0.597,0.354-1.255,0.609-1.958,0.747-0.561-0.599-1.363-0.974-2.25-0.974-1.701,0-3.081,1.381-3.081,3.083,0,0.242,0.026,0.478,0.079,0.702-2.562-0.129-4.832-1.354-6.354-3.222-0.266,0.458-0.418,0.986-0.418,1.552,0,1.068,0.545,2.012,1.372,2.5660004-0.505-0.016-0.981-0.1560004-1.397-0.3860004v0.038c0,1.4940004,1.062,2.7400004,2.474,3.0220004-0.259,0.073-0.53,0.108-0.812,0.108-0.199,0-0.393-0.018-0.58-0.055,0.393,1.225,1.529,2.117,2.879,2.141-1.055,0.827-2.385,1.32-3.828,1.32-0.249,0-0.496-0.014-0.735-0.043,1.364,0.874,2.983,1.385,4.725,1.385,5.671,0,8.771-4.697,8.771-8.7710004,0-0.135-0.003-0.268-0.009-0.398,0.603-0.434,1.126-0.977,1.538-1.596" fill="#FFF"/>
  </g>
 </g>
</svg>
