<svg width="30" height="30" xmlns="http://www.w3.org/2000/svg" xmlns:svg="http://www.w3.org/2000/svg">
 <g>
   <path stroke="null" id="svg_2" d="m14.999,30.00299c8.284,0 14.999,-6.71701 14.999,-15.00101c0,-8.285 -6.715,-15.00198 -14.999,-15.00198c-8.285,0 -14.999,6.71698 -14.999,15.00198c0,8.285 6.714,15.00101 14.999,15.00101" fill="#000"/>
   <path stroke="null" id="svg_3" d="m22.068,16.61798c0.108,-0.496 0.165,-1.01001 0.165,-1.53699c0,-3.95001 -3.203,-7.15302 -7.154,-7.15302c-0.416,0 -0.824,0.03601 -1.224,0.104c-0.639,-0.40298 -1.396,-0.638 -2.206,-0.638c-2.292,0 -4.149,1.85699 -4.149,4.14999c0,0.76501 0.208,1.48102 0.569,2.09799c-0.094,0.466 -0.145,0.94601 -0.145,1.43802c0,3.952 3.203,7.15601 7.154,7.15601c0.448,0 0.885,-0.04102 1.311,-0.121c0.584,0.314 1.252,0.49298 1.961,0.49298c2.291,0 4.148,-1.85599 4.148,-4.14899c0.001,-0.66199 -0.154,-1.28699 -0.43,-1.841zm-3.319,1.88199c-0.331,0.46899 -0.82,0.83899 -1.453,1.103c-0.627,0.26199 -1.381,0.39502 -2.236,0.39502c-1.027,0 -1.889,-0.18201 -2.561,-0.53702c-0.48,-0.26001 -0.877,-0.61099 -1.179,-1.04599c-0.304,-0.43802 -0.458,-0.87399 -0.458,-1.29401c0,-0.26199 0.102,-0.48901 0.299,-0.67499c0.195,-0.185 0.447,-0.27701 0.746,-0.27701c0.246,0 0.459,0.073 0.631,0.21899c0.164,0.14001 0.305,0.34601 0.42,0.61301c0.126,0.29001 0.264,0.535 0.41,0.728c0.141,0.18701 0.343,0.34399 0.6,0.46399c0.26,0.12402 0.609,0.18701 1.039,0.18701c0.592,0 1.076,-0.12601 1.441,-0.37601c0.355,-0.24298 0.529,-0.53598 0.529,-0.892c0,-0.28299 -0.091,-0.505 -0.276,-0.67899c-0.194,-0.18301 -0.452,-0.32401 -0.763,-0.423c-0.326,-0.10001 -0.768,-0.20999 -1.312,-0.32501c-0.742,-0.159 -1.373,-0.34698 -1.875,-0.561c-0.514,-0.21799 -0.927,-0.521 -1.229,-0.89798c-0.308,-0.38602 -0.465,-0.867 -0.465,-1.436c0,-0.539 0.164,-1.02802 0.486,-1.44699c0.32,-0.41702 0.787,-0.742 1.389,-0.96402c0.594,-0.21899 1.301,-0.33099 2.1,-0.33099c0.639,0 1.2,0.07401 1.669,0.22101c0.472,0.146 0.87,0.34399 1.182,0.58899c0.315,0.24399 0.55,0.508 0.696,0.78c0.147,0.276 0.223,0.552 0.223,0.81702c0,0.25598 -0.098,0.48599 -0.293,0.689c-0.195,0.20398 -0.443,0.30698 -0.734,0.30698c-0.266,0 -0.473,-0.06497 -0.616,-0.18997c-0.134,-0.11902 -0.272,-0.30402 -0.427,-0.569c-0.178,-0.33801 -0.395,-0.60501 -0.643,-0.793c-0.24,-0.18503 -0.642,-0.276 -1.194,-0.276c-0.512,0 -0.931,0.10199 -1.239,0.306c-0.299,0.19598 -0.443,0.41998 -0.443,0.68597c0,0.16302 0.046,0.29901 0.143,0.41602c0.102,0.12601 0.245,0.23199 0.426,0.32401c0.189,0.095 0.383,0.17099 0.576,0.224c0.198,0.056 0.533,0.13699 0.99,0.24298c0.579,0.12402 1.111,0.26401 1.582,0.414c0.477,0.15302 0.887,0.33902 1.223,0.56c0.343,0.22202 0.615,0.50803 0.807,0.85101c0.193,0.34299 0.291,0.767 0.291,1.26199c-0.002,0.58401 -0.17,1.12302 -0.502,1.591z" fill="#FFFFFF"/>
 </g>
</svg>