<svg xmlns="http://www.w3.org/2000/svg" height="30" width="30" version="1.1" xmlns:cc="http://creativecommons.org/ns#" xmlns:dc="http://purl.org/dc/elements/1.1/">
 <path style="color:#000000;enable-background:accumulate;" d="m30,15.002a15,15,0,0,1,-30,0,15,15,0,1,1,30,0z" fill-rule="nonzero" fill="#000"/>
 <path fill="#FFF" d="m18.591,6.7909-7.1826,0c-0.84654,0-1.5392,0.69266-1.5392,1.5392v13.34c0,0.84654,0.69265,1.5392,1.5392,1.5392h7.1826c0.84654,0,1.5392-0.69265,1.5392-1.5392v-13.34c0-0.84654-0.69266-1.5392-1.5392-1.5392z"/>
 <path fill="#000" d="m15,22.183c-0.5667,0-1.0261-0.45942-1.0261-1.0261,0-0.5667,0.45941-1.0261,1.0261-1.0261,0.5667,0,1.0261,0.45941,1.0261,1.0261,0,0.5667-0.45941,1.0261-1.0261,1.0261z"/>
 <path fill="#000" d="m19.104,19.105-8.2087,0,0-10.261,8.2087,0z"/>
</svg>
