<?xml version="1.0" encoding="utf-8"?>
<!-- Generator: Adobe Illustrator 15.0.0, SVG Export Plug-In . SVG Version: 6.00 Build 0)  -->
<!DOCTYPE svg PUBLIC "-//W3C//DTD SVG 1.1//EN" "http://www.w3.org/Graphics/SVG/1.1/DTD/svg11.dtd">
<svg version="1.1" id="Layer_1" xmlns="http://www.w3.org/2000/svg" xmlns:xlink="http://www.w3.org/1999/xlink" x="0px" y="0px"
	 width="182.889px" height="80px" viewBox="0 0 182.889 80" enable-background="new 0 0 182.889 80" xml:space="preserve">
<g>
	<polygon fill="#231F20" points="51.963,55 25.981,70 0,55 0,25 25.981,10 51.963,25 	"/>
	<g>
		<g>
			<defs>
				<filter id="Adobe_OpacityMaskFilter" filterUnits="userSpaceOnUse" x="11.015" y="17.517" width="29.934" height="44.966">
					
						<feColorMatrix  type="matrix" values="-1 0 0 0 1  0 -1 0 0 1  0 0 -1 0 1  0 0 0 1 0" color-interpolation-filters="sRGB" result="source"/>
				</filter>
			</defs>
			<mask maskUnits="userSpaceOnUse" x="11.015" y="17.517" width="29.934" height="44.966" id="SVGID_1_">
				<g filter="url(#Adobe_OpacityMaskFilter)">
					<polygon points="40.948,32.483 40.948,40 40.731,39.782 37.188,36.242 25.98,25.034 25.98,17.517 40.731,32.265 					"/>
					<polygon points="40.948,40 25.98,54.966 25.98,47.45 37.188,36.242 40.731,39.782 					"/>
					<polygon points="25.98,54.966 25.98,62.483 11.231,47.735 11.015,47.517 11.015,40 11.231,40.218 14.773,43.758 					"/>
					<polygon points="25.98,25.034 25.98,32.549 14.773,43.758 11.231,40.218 11.015,40 					"/>
				</g>
			</mask>
			<linearGradient id="SVGID_2_" gradientUnits="userSpaceOnUse" x1="11.0146" y1="40" x2="40.9482" y2="40">
				<stop  offset="0" style="stop-color:#43C1F0"/>
				<stop  offset="1" style="stop-color:#64C8D9"/>
			</linearGradient>
			<rect x="11.015" y="17.517" mask="url(#SVGID_1_)" fill="url(#SVGID_2_)" width="29.934" height="44.966"/>
			<linearGradient id="SVGID_3_" gradientUnits="userSpaceOnUse" x1="25.9814" y1="54.9658" x2="25.9814" y2="25.0342">
				<stop  offset="0" style="stop-color:#000000"/>
				<stop  offset="0.1413" style="stop-color:#000000;stop-opacity:0.8587"/>
				<stop  offset="1" style="stop-color:#000000;stop-opacity:0"/>
			</linearGradient>
			<polygon opacity="0" fill="url(#SVGID_3_)" points="37.188,36.242 25.98,47.45 25.98,54.966 14.773,43.758 25.98,32.549 
				25.98,25.034 			"/>
			<polygon opacity="0.1" fill="#FFFFFF" points="40.948,32.483 40.948,40 40.731,39.782 37.188,36.242 25.98,25.034 25.98,17.517 
				40.731,32.265 			"/>
			<linearGradient id="SVGID_4_" gradientUnits="userSpaceOnUse" x1="40.9482" y1="45.6035" x2="25.9805" y2="45.6035">
				<stop  offset="0" style="stop-color:#000000"/>
				<stop  offset="0.0056" style="stop-color:#000000;stop-opacity:0.9944"/>
				<stop  offset="1" style="stop-color:#000000;stop-opacity:0"/>
			</linearGradient>
			<polygon opacity="0.1" fill="url(#SVGID_4_)" points="40.948,40 25.98,54.966 25.98,47.45 37.188,36.242 40.731,39.782 			"/>
			<linearGradient id="SVGID_5_" gradientUnits="userSpaceOnUse" x1="11.0146" y1="51.2412" x2="25.9805" y2="51.2412">
				<stop  offset="0" style="stop-color:#000000"/>
				<stop  offset="0.0056" style="stop-color:#000000;stop-opacity:0.9944"/>
				<stop  offset="1" style="stop-color:#000000;stop-opacity:0"/>
			</linearGradient>
			<polygon opacity="0.1" fill="url(#SVGID_5_)" points="25.98,54.966 25.98,62.483 11.231,47.735 11.015,47.517 11.015,40 
				11.231,40.218 14.773,43.758 			"/>
			<polygon opacity="0.1" fill="#FFFFFF" points="25.98,25.034 25.98,32.549 14.773,43.758 11.231,40.218 11.015,40 			"/>
		</g>
		<line fill="none" x1="25.981" y1="10" x2="25.981" y2="17.517"/>
		<line fill="none" x1="25.981" y1="62.483" x2="25.981" y2="70"/>
	</g>
</g>
<g>
	<path fill="#CCCCCD" d="M72.766,43.088l1.261,0.937c-1.278,1.71-3.241,2.683-5.348,2.683c-3.709,0-6.716-3.007-6.716-6.716
		c0-3.691,3.007-6.698,6.716-6.698c2.124,0,4.087,0.99,5.365,2.7l-1.278,0.937c-0.972-1.314-2.467-2.053-4.087-2.053
		c-2.845,0-5.132,2.287-5.132,5.114c0,2.845,2.287,5.131,5.132,5.131C70.281,45.122,71.775,44.384,72.766,43.088z"/>
	<path fill="#CCCCCD" d="M75.895,44.744l6.464-9.524h-6.481v-1.531h8.084v1.981l-6.302,9.309h6.32v1.53h-8.085V44.744z"/>
	<path fill="#CCCCCD" d="M86.587,33.688h8.103v1.549h-6.482v3.007h5.653v1.603h-5.653v5.078h6.32v1.584h-7.94V33.688z"/>
	<path fill="#CCCCCD" d="M106.947,46.509h-1.854l-4.897-6.734h-1.837v6.734h-1.548v-12.82h4.447c0.81,0,1.566,0.324,2.143,0.9
		s0.9,1.333,0.9,2.143c0,1.423-0.99,2.611-2.305,2.953L106.947,46.509z M98.358,38.227h2.899c0.828,0,1.494-0.666,1.494-1.495
		c0-0.828-0.666-1.494-1.494-1.494h-2.899V38.227z"/>
	<path fill="#CCCCCD" d="M115.658,42.781h-5.239l-1.423,3.728h-1.729l4.934-12.82h1.675l4.951,12.82h-1.747L115.658,42.781z
		 M113.047,36.012l-1.998,5.186h3.979L113.047,36.012z"/>
	<path fill="#CCCCCD" d="M123.559,46.491c-1.332-0.271-2.646-0.937-3.817-1.945l1.063-1.206c0.954,0.828,2.017,1.387,3.079,1.603
		c0.9,0.198,1.782,0.126,2.484-0.198c0.469-0.216,1.278-0.756,1.278-1.854c0-1.351-1.44-1.837-2.845-2.106
		c-0.126-0.019-2.143-0.433-2.952-0.9c-1.081-0.648-1.657-1.62-1.657-2.809c0-0.666,0.217-1.297,0.595-1.854
		c0.378-0.505,0.9-0.919,1.512-1.207c0.9-0.432,1.963-0.558,3.043-0.378c1.171,0.198,2.359,0.757,3.403,1.621l-1.026,1.242
		c-1.854-1.53-3.655-1.566-4.735-1.063c-0.738,0.342-1.17,0.973-1.17,1.62c0,1.225,1.044,1.692,2.7,2.053
		c0.685,0.162,2.106,0.396,2.953,0.883c1.17,0.647,1.782,1.656,1.782,2.898c0,0.738-0.197,1.423-0.612,2.017
		c-0.378,0.54-0.954,0.954-1.602,1.278c-0.685,0.342-1.387,0.45-2.179,0.45C124.423,46.635,123.991,46.581,123.559,46.491z"/>
	<path fill="#CCCCCD" d="M131.189,44.744l6.464-9.524h-6.481v-1.531h8.084v1.981l-6.302,9.309h6.32v1.53h-8.085V44.744z"/>
	<path fill="#CCCCCD" d="M142.908,45.482c0,0.559-0.45,1.026-1.008,1.026c-0.576,0-1.026-0.468-1.026-1.026
		c0-0.558,0.45-1.026,1.026-1.026C142.458,44.456,142.908,44.925,142.908,45.482z"/>
	<path fill="#CCCCCD" d="M153.819,43.088l1.26,0.937c-1.278,1.71-3.24,2.683-5.348,2.683c-3.709,0-6.716-3.007-6.716-6.716
		c0-3.691,3.007-6.698,6.716-6.698c2.125,0,4.088,0.99,5.366,2.7l-1.278,0.937c-0.973-1.314-2.467-2.053-4.088-2.053
		c-2.845,0-5.131,2.287-5.131,5.114c0,2.845,2.286,5.131,5.131,5.131C151.334,45.122,152.829,44.384,153.819,43.088z"/>
	<path fill="#CCCCCD" d="M169.785,40.009c0,3.691-3.024,6.68-6.716,6.68s-6.698-2.988-6.698-6.68c0-3.709,3.007-6.716,6.698-6.716
		S169.785,36.3,169.785,40.009z M168.146,40.009c0-2.809-2.269-5.132-5.077-5.132s-5.077,2.323-5.077,5.132
		c0,2.791,2.269,5.096,5.077,5.096S168.146,42.8,168.146,40.009z"/>
	<path fill="#CCCCCD" d="M181.286,46.509V36.282l-4.087,5.581l-4.069-5.581v10.227h-1.603v-12.82h1.692l3.979,5.475l3.979-5.475
		h1.71v12.82H181.286z"/>
</g>
</svg>
