<svg xmlns="http://www.w3.org/2000/svg" height="80" width="162" version="1.1" xmlns:cc="http://creativecommons.org/ns#" xmlns:dc="http://purl.org/dc/elements/1.1/">
 <g transform="translate(0,-972.36218)">
  <g transform="matrix(0.25374166,0,0,-0.25374166,51.152369,1034.491)">
   <g transform="scale(0.1,0.1)">
    <path fill-rule="evenodd" fill="#2e2d2d" d="m0,0,2352.6,0,0,1744.2h-2352.6v-1744.2z"/>
    <path fill-rule="evenodd" fill="#FFF" d="m591.56,884.34c0,5.422-2.856,10.402-7.532,13.086l-124.69,71.758c-2.109,1.242-4.473,1.886-6.863,1.984h-1.289c-2.383-0.098-4.746-0.742-6.887-1.984l-124.69-71.76c-4.648-2.684-7.539-7.664-7.539-13.086l0.274-193.22c0-2.691,1.394-5.191,3.761-6.512,2.313-1.379,5.172-1.379,7.481,0l74.102,42.442c4.683,2.777,7.539,7.687,7.539,13.058v90.278c0,5.379,2.847,10.359,7.515,13.035l31.555,18.176c2.351,1.355,4.922,2.019,7.551,2.019,2.566,0,5.203-0.664,7.488-2.019l31.543-18.176c4.668-2.676,7.527-7.656,7.527-13.035v-90.278c0-5.371,2.895-10.308,7.551-13.058l74.082-42.442c2.324-1.379,5.227-1.379,7.527,0,2.297,1.321,3.743,3.821,3.743,6.512l0.246,193.22"/>
    <path fill-rule="evenodd" fill="#FFF" d="m1245.8,783.73c0-1.343-0.72-2.589-1.88-3.257l-42.83-24.688c-1.16-0.668-2.6-0.668-3.76,0l-42.83,24.688c-1.17,0.668-1.88,1.914-1.88,3.257v49.454c0,1.343,0.71,2.586,1.88,3.261l42.82,24.735c1.17,0.675,2.61,0.675,3.77,0l42.83-24.735c1.16-0.675,1.88-1.918,1.88-3.261v-49.45zm11.57,366.23c-2.33,1.29-5.18,1.27-7.48-0.09-2.3-1.35-3.72-3.82-3.72-6.49v-191.37c0-1.882-1-3.625-2.63-4.566s-3.64-0.941-5.27,0l-31.23,17.992c-4.66,2.688-10.39,2.68-15.05-0.004l-124.74-71.988c-4.66-2.691-7.53-7.66-7.53-13.039v-144c0-5.387,2.87-10.359,7.53-13.047l124.73-72.043c4.66-2.687,10.4-2.687,15.07,0l124.75,72.043c4.66,2.688,7.53,7.66,7.53,13.047v358.96c0,5.46-2.96,10.5-7.73,13.16l-74.23,41.42"/>
    <path fill-rule="evenodd" fill="#FFF" d="m1703.6,834.48c4.64,2.695,7.49,7.656,7.49,13.023v34.898c0,5.364-2.85,10.332-7.5,13.028l-123.93,71.957c-4.67,2.711-10.42,2.715-15.1,0.019l-124.69-71.988c-4.66-2.691-7.53-7.66-7.53-13.043v-143.96c0-5.422,2.91-10.41,7.61-13.09l123.92-70.609c4.57-2.609,10.17-2.633,14.77-0.082l74.95,41.66c2.38,1.32,3.86,3.82,3.87,6.531,0.02,2.719-1.43,5.231-3.78,6.578l-125.5,72.02c-2.35,1.344-3.79,3.836-3.79,6.531v45.117c0,2.692,1.44,5.184,3.77,6.524l39.06,22.515c2.32,1.344,5.19,1.344,7.51,0l39.08-22.515c2.33-1.34,3.77-3.832,3.77-6.524v-35.496c0-2.695,1.44-5.187,3.77-6.527,2.34-1.348,5.21-1.34,7.54,0.012l74.69,43.414"/>
    <path fill-rule="evenodd" fill="#72c42d" d="m818.37,968.16c4.66,2.688,10.403,2.688,15.063,0l124.72-71.972c4.665-2.692,7.536-7.665,7.536-13.047v-144.06c0-5.379-2.871-10.348-7.532-13.047l-124.73-72.03c-4.664-2.691-10.407-2.691-15.071,0l-124.69,72.031c-4.656,2.699-7.527,7.668-7.527,13.047v144.07c0,5.378,2.871,10.351,7.531,13.043l124.69,71.972"/>
    <path fill-rule="nonzero" fill="#72c42d" d="m1945.8,651.95c-4.3,0-8.57,1.121-12.33,3.301l-39.27,23.23c-5.86,3.282-3,4.442-1.07,5.122,7.83,2.707,9.41,3.339,17.76,8.07,0.87,0.488,2.02,0.308,2.92-0.223l30.16-17.91c1.1-0.609,2.64-0.609,3.65,0l117.6,67.879c1.1,0.633,1.8,1.883,1.8,3.187v135.72c0,1.328-0.7,2.567-1.82,3.242l-117.56,67.821c-1.09,0.636-2.53,0.636-3.63,0l-117.53-67.84c-1.14-0.656-1.86-1.934-1.86-3.223v-135.72c0-1.304,0.72-2.527,1.85-3.144l32.22-18.609c17.48-8.743,28.19,1.546,28.19,11.886v134.01c0,1.895,1.52,3.387,3.41,3.387h14.92c1.86,0,3.4-1.492,3.4-3.387v-134.01c0-23.328-12.7-36.707-34.82-36.707-6.8,0-12.15,0-27.09,7.36l-30.84,17.757c-7.62,4.403-12.33,12.641-12.33,21.457v135.72c0,8.817,4.71,17.051,12.33,21.434l117.61,67.961c7.44,4.207,17.33,4.207,24.71,0l117.6-67.961c7.62-4.403,12.35-12.617,12.35-21.434v-135.72c0-8.816-4.73-17.027-12.35-21.457l-117.6-67.898c-3.76-2.18-8.02-3.301-12.38-3.301"/>
    <path fill-rule="nonzero" fill="#72c42d" d="m1982.1,745.45c-51.47,0-62.25,23.625-62.25,43.438,0,1.886,1.52,3.39,3.4,3.39h15.21c1.7,0,3.11-1.222,3.38-2.883,2.29-15.476,9.14-23.289,40.26-23.289,24.77,0,35.32,5.606,35.32,18.75,0,7.579-2.99,13.204-41.49,16.973-32.18,3.184-52.08,10.293-52.08,36.035,0,23.731,20,37.879,53.53,37.879,37.68,0,56.32-13.074,58.68-41.133,0.09-0.965-0.25-1.894-0.89-2.617-0.65-0.672-1.55-1.082-2.49-1.082h-15.27c-1.58,0-2.98,1.121-3.3,2.656-3.66,16.289-12.57,21.493-36.73,21.493-27.05,0-30.19-9.422-30.19-16.485,0-8.555,3.71-11.043,40.23-15.879,36.14-4.773,53.31-11.543,53.31-36.941,0-25.625-21.36-40.305-58.63-40.305"/>
    <path fill-rule="evenodd" fill="#72c42d" d="m1570.3,841.22c0.9,0.519,2,0.519,2.89,0l23.94-13.809c0.89-0.515,1.44-1.469,1.44-2.504v-27.636c0-1.036-0.55-1.989-1.44-2.504l-23.94-13.809c-0.89-0.519-1.99-0.519-2.89,0l-23.91,13.809c-0.9,0.515-1.45,1.468-1.45,2.504v27.636c0,1.035,0.55,1.989,1.45,2.504l23.91,13.809"/>
    <path fill-rule="nonzero" fill="#72c42d" d="m2143.1,934.51,3.96,0c3.23,0,3.84,2.273,3.84,3.593,0,3.481-2.4,3.481-3.72,3.481h-4.08v-7.074zm-4.8,11.152,8.76,0c3,0,8.88,0,8.88-6.719,0-4.679-3-5.636-4.81-6.234,3.49-0.242,3.72-2.52,4.2-5.758,0.25-2.035,0.61-5.519,1.32-6.715h-5.39c-0.13,1.196-0.97,7.676-0.97,8.032-0.35,1.441-0.84,2.16-2.63,2.16h-4.44v-10.192h-4.92v25.426zm-10.49-12.652c0-10.555,8.52-19.071,18.95-19.071,10.55,0,19.07,8.696,19.07,19.071,0,10.551-8.63,18.945-19.07,18.945-10.32,0-18.95-8.269-18.95-18.945zm41.67-0.063c0-12.472-10.19-22.668-22.66-22.668-12.36,0-22.67,10.074-22.67,22.668,0,12.832,10.56,22.672,22.67,22.672,12.23,0,22.66-9.84,22.66-22.672"/>
   </g>
  </g>
 </g>
</svg>
