<svg xmlns="http://www.w3.org/2000/svg" height="80" width="162" version="1.1" xmlns:cc="http://creativecommons.org/ns#" xmlns:xlink="http://www.w3.org/1999/xlink" xmlns:dc="http://purl.org/dc/elements/1.1/">
 <defs>
  <linearGradient id="linearGradient9966-7" y2="114.4" gradientUnits="userSpaceOnUse" x2="135.67" gradientTransform="matrix(0.562541,0,0,0.567972,-9.399749,-5.305317)" y1="20.604" x1="26.649">
   <stop stop-color="#5a9fd4" offset="0"/>
   <stop stop-color="#306998" offset="1"/>
  </linearGradient>
  <linearGradient id="linearGradient9968-6" y2="137.27" gradientUnits="userSpaceOnUse" x2="112.03" gradientTransform="matrix(0.562541,0,0,0.567972,-9.399749,-5.305317)" y1="192.35" x1="150.96">
   <stop stop-color="#ffd43b" offset="0"/>
   <stop stop-color="#ffe873" offset="1"/>
  </linearGradient>
  <radialGradient id="radialGradient7777" gradientUnits="userSpaceOnUse" cx="61.519" cy="132.29" r="29.037" gradientTransform="matrix(2.382716e-8,-0.296405,1.43676,4.683673e-7,-128.544,150.5202)">
   <stop stop-color="#b8b8b8" stop-opacity="0.49803922" offset="0"/>
   <stop stop-color="#7f7f7f" stop-opacity="0" offset="1"/>
  </radialGradient>
 </defs>
 <g transform="translate(0,-972.36218)">
  <g transform="matrix(0.22012801,0,0,0.22012801,27.51073,996.477)">
   <path fill="#646464" d="m184.61,61.929c0-14.562-4.1523-22.038-12.457-22.448-3.3043-0.15595-6.5306,0.37039-9.6691,1.5888-2.505,0.89673-4.1912,1.7837-5.0782,2.6804v34.758c5.3122,3.3335,10.03,4.8833,14.143,4.6396,8.7042-0.57508,13.061-7.6417,13.061-21.219zm10.244,0.60432c0,7.398-1.735,13.539-5.2244,18.422-3.8891,5.5266-9.2792,8.3728-16.17,8.5287-5.1952,0.1657-10.546-1.4621-16.053-4.8736v31.59l-8.9088-3.1776v-70.121c1.4621-1.7935,3.3432-3.3335,5.6241-4.6396,5.3024-3.0898,11.745-4.6786,19.328-4.7566l0.12671,0.12671c6.9302-0.08773,12.272,2.7584,16.024,8.5287,3.4992,5.2927,5.2537,12.077,5.2537,20.371z"/>
   <path fill="#646464" d="m249.3,83.266c0,9.9225-0.9942,16.794-2.9826,20.615-1.9982,3.8209-5.7995,6.8717-11.414,9.1428-4.5519,1.7935-9.4742,2.7682-14.757,2.9339l-1.4718-5.6143c5.3706-0.73103,9.1525-1.4621,11.346-2.1931,4.318-1.4621,7.2811-3.7039,8.9088-6.706,1.3061-2.4465,1.9494-7.1154,1.9494-14.026v-2.3198c-6.0919,2.7682-12.476,4.1425-19.153,4.1425-4.3862,0-8.2558-1.3743-11.589-4.1425-3.7429-3.0119-5.6143-6.8327-5.6143-11.463v-37.078l8.9088-3.0508v37.322c0,3.9866,1.2866,7.0569,3.8598,9.211s5.9067,3.1873,9.9908,3.1093c4.084-0.08773,8.4605-1.6668,13.11-4.7566v-43.54h8.9088v48.414z"/>
   <path fill="#646464" d="m284.08,88.997c-1.0624,0.08772-2.0371,0.12671-2.9339,0.12671-5.0392,0-8.9673-1.1989-11.774-3.6064-2.7974-2.4075-4.201-5.7313-4.201-9.9713v-35.09h-6.1017v-5.6046h6.1017v-14.884l8.8991-3.1678v18.052h10.01v5.6046h-10.01v34.846c0,3.3432,0.89673,5.7118,2.6902,7.0959,1.54,1.1404,3.9866,1.7935,7.3201,1.9592v4.6396z"/>
   <path fill="#646464" d="m338.02,88.266-8.9088,0,0-34.388c0-3.4992-0.81876-6.5111-2.4465-9.0258-1.8812-2.8462-4.4934-4.2692-7.8464-4.2692-4.084,0-9.1915,2.1541-15.322,6.4623v41.22h-8.9088v-82.197l8.9088-2.8072v37.439c5.6923-4.1425,11.911-6.2186,18.666-6.2186,4.7176,0,8.5385,1.5888,11.463,4.7566,2.9339,3.1678,4.3959,7.1154,4.3959,11.833v37.195z"/>
   <path fill="#646464" d="m385.37,60.526c0-5.5948-1.0624-10.215-3.1776-13.87-2.5147-4.4544-6.4233-6.8035-11.706-7.0472-9.7666,0.56534-14.64,7.5638-14.64,20.976,0,6.1504,1.0137,11.287,3.0606,15.41,2.6122,5.2537,6.5306,7.8464,11.755,7.7587,9.8056-0.07798,14.708-7.8172,14.708-23.227zm9.7568,0.05848c0,7.9634-2.0371,14.591-6.1017,19.884-4.4739,5.9262-10.654,8.8991-18.539,8.8991-7.8172,0-13.909-2.9729-18.305-8.8991-3.9866-5.2927-5.975-11.921-5.975-19.884,0-7.4858,2.1541-13.782,6.4623-18.909,4.5519-5.4389,10.537-8.1681,17.935-8.1681s13.422,2.7292,18.061,8.1681c4.3082,5.127,6.4623,11.424,6.4623,18.909z"/>
   <path fill="#646464" d="m446.21,88.266-8.9088,0,0-36.337c0-3.9866-1.1989-7.0959-3.5967-9.3377-2.3978-2.2321-5.5948-3.314-9.5814-3.2263-4.2302,0.07798-8.2558,1.4621-12.077,4.1425v44.759h-8.9088v-45.86c5.127-3.7331,9.8446-6.1699,14.153-7.3103,4.0646-1.0624,7.6515-1.5888,10.741-1.5888,2.1151,0,4.1035,0.20469,5.975,0.61406,3.4992,0.80901,6.3454,2.3101,8.5384,4.5129,2.4465,2.4368,3.6649,5.3609,3.6649,8.7821v40.85z"/>
   <path fill="url(#linearGradient9966-7)" d="m60.51,6.398c-4.5837,0.021298-8.9609,0.41222-12.812,1.0938-11.347,2.0044-13.407,6.2002-13.407,13.937v10.219h26.812v3.4062h-26.812-10.062c-7.7925,0-14.616,4.6837-16.75,13.594-2.4618,10.213-2.571,16.586,0,27.25,1.9059,7.9379,6.4575,13.594,14.25,13.594h9.2188v-12.25c0-8.8499,7.6571-16.656,16.75-16.656h26.781c7.455,0,13.406-6.1382,13.406-13.625v-25.531c0-7.2663-6.13-12.725-13.406-13.938-4.606-0.76673-9.3851-1.115-13.969-1.0938zm-14.5,8.2188c2.7695,0,5.0312,2.2986,5.0312,5.125-0.000002,2.8163-2.2617,5.0938-5.0312,5.0938-2.7795-0.000001-5.0312-2.2774-5.0312-5.0938-0.000001-2.8264,2.2518-5.125,5.0312-5.125z"/>
   <path fill="url(#linearGradient9968-6)" d="m91.229,35.054,0,11.906c0,9.2308-7.8259,17-16.75,17h-26.781c-7.3358,0-13.406,6.2785-13.406,13.625v25.531c0,7.2663,6.3186,11.54,13.406,13.625,8.4873,2.4956,16.626,2.9466,26.781,0,6.7502-1.9544,13.406-5.8876,13.406-13.625v-10.219h-26.781v-3.4062h26.781,13.406c7.7925,0,10.696-5.4354,13.406-13.594,2.7993-8.3989,2.6802-16.476,0-27.25-1.9258-7.7574-5.6039-13.594-13.406-13.594h-10.063zm-15.062,64.656c2.7795,0.000003,5.0312,2.2774,5.0312,5.0937-0.000002,2.8264-2.2518,5.125-5.0312,5.125-2.7696,0-5.0312-2.2986-5.0312-5.125,0.000002-2.8163,2.2617-5.0937,5.0312-5.0937z"/>
   <path fill="#646464" d="m463.55,26.909,1.562,0,0-9.7962,3.7001,0,0-1.1677-8.9622,0,0,1.1677,3.7001,0,0,9.7962m6.647,0,1.3345,0,0-8.947,2.8964,8.9459,1.4857,0,3.0182-8.9156,0,8.9167,1.4558,0,0-10.964-1.9259,0-3.2983,9.3929-2.813-9.3929-2.1534,0,0,10.964"/>
   <path opacity="0.44382019" d="m110.47,132.29a48.948,8.6067,0,1,1,-97.897,0,48.948,8.6067,0,1,1,97.897,0z" fill-rule="nonzero" transform="matrix(0.73406,0,0,0.809524,16.24958,27.00935)" fill="url(#radialGradient7777)"/>
  </g>
 </g>
</svg>
