<svg xmlns="http://www.w3.org/2000/svg" height="80" width="162" version="1.1" xmlns:cc="http://creativecommons.org/ns#" xmlns:dc="http://purl.org/dc/elements/1.1/">
 <g transform="translate(0,-972.36218)">
  <g transform="matrix(0.07704101,0,0,-0.07704101,50.075492,1043.7322)">
   <g transform="translate(245.8031,86.672)">
    <path fill-rule="nonzero" fill="#231f20" d="M0,0c-1.394,0-2.899,0.347-3.944,1.739l-44.749,57.967v-59.127h-10.205v72.808c0,2.897,2.435,5.216,5.22,5.216,1.621,0,3.014-0.463,4.054-1.855l44.636-57.852v58.896h10.204v-72.691c0-3.015-2.435-5.101-5.216-5.101"/>
   </g>
   <g transform="translate(330.2103,85.9761)">
    <path fill-rule="nonzero" fill="#231f20" d="m0,0c-10.201,0-20.869,2.088-30.84,5.796l2.436,8.349c9.159-2.899,19.129-4.986,28.404-4.986,12.87,0,19.594,4.522,19.594,10.897,0,5.798-5.219,8.696-23.189,17.044-17.97,8.347-25.04,13.679-25.04,24.115,0,13.098,10.201,18.434,29.445,18.434,8.001,0,20.289-1.625,27.364-3.712l-1.624-8.578c-7.77,1.854-17.506,3.129-25.507,3.129-13.562,0-19.128-2.549-19.128-8.927,0-6.259,4.056-8.926,23.07-17.622,20.058-9.159,25.159-13.797,25.159-23.302,0-13.798-13.219-20.637-30.144-20.637"/>
   </g>
   <path fill-rule="nonzero" fill="#231f20" d="m408.7,164.46,10.55,0,0-77.212-10.55,0,0,77.212z"/>
   <g transform="translate(508.9938,122.2633)">
    <path fill-rule="nonzero" fill="#231f20" d="m0,0-26.205,0,0-26.203,26.205,0c8.926,0,14.375,5.566,14.375,13.335,0,7.304-5.68,12.868-14.375,12.868m-5.104,33.39-21.101,0,0-24.695,21.101,0c8.465,0,14.609,5.334,14.609,12.753,0,7.304-5.334,11.942-14.609,11.942m5.219-68.402-31.534,0c-3.016,0-5.335,2.32-5.335,5.217v66.778c0,2.784,2.319,5.217,5.335,5.217h26.085c15.999,0,25.505-7.767,25.505-19.941,0-6.607-3.942-12.752-9.972-16.346,8.931-2.667,14.956-9.97,14.956-18.781,0-12.289-10.316-22.144-25.04-22.144"/>
   </g>
   <g transform="translate(584.8159,87.2512)">
    <path fill-rule="nonzero" fill="#231f20" d="M0,0c-2.894,0-5.214,2.435-5.214,5.217v71.995h10.548v-67.822h41.97v-9.39h-47.304z"/>
   </g>
   <g transform="translate(704.0381,85.9761)">
    <path fill-rule="nonzero" fill="#231f20" d="m0,0c-21.565,0-34.55,7.883-34.55,23.766,0,7.536,4.291,14.724,12.639,18.086-6.725,4.174-10.202,10.087-10.202,16.579,0,14.375,11.249,21.218,32.347,21.218,7.073,0,17.042-0.813,25.391-2.669l-1.161-8.578c-8.809,1.392-17.044,2.201-25.043,2.201-13.681,0-20.986-3.708-20.986-12.636,0-7.073,6.726-12.637,15.655-12.637h18.084c2.551,0,4.521-1.971,4.521-4.405,0-2.55-1.97-4.521-4.521-4.521h-19.474c-10.206,0-16.695-4.984-16.695-12.638,0-11.245,10.55-14.607,23.766-14.607,7.189,0,16.924,0.925,24.807,2.781l1.511-8.462c-7.538-2.088-17.394-3.478-26.089-3.478"/>
   </g>
   <g transform="translate(108.3943,149.9831)">
    <path fill-rule="nonzero" fill="#231f20" d="M0,0,18.477-45.601-9.429-23.619,0,0zm32.825-56.107-28.419,68.397c-0.811,1.971-2.435,3.015-4.406,3.015s-3.71-1.044-4.521-3.015l-31.194-75.022h10.669l12.35,30.93,36.848-29.77c1.482-1.197,2.551-1.739,3.944-1.739,2.781,0,5.216,2.086,5.216,5.1,0,0.489-0.175,1.267-0.487,2.104"/>
   </g>
   <g transform="translate(658.6801,474.4151)">
    <path fill-rule="nonzero" fill="#231f20" d="m0,0c0-140.28-113.71-253.98-253.98-253.98s-253.98,113.7-253.98,253.98c0,140.27,113.72,253.98,253.98,253.98,140.27,0,253.98-113.71,253.98-253.98"/>
   </g>
   <g transform="translate(408.9718,573.2465)">
    <path fill-rule="nonzero" fill="#FFF" d="M0,0,65.726-162.22-33.552-84.017,0,0zm116.76-199.59-101.1,243.31c-2.886,7.017-8.657,10.73-15.661,10.73-7.017,0-13.208-3.713-16.094-10.73l-110.96-266.87h37.959l43.926,110.03,131.08-105.9c5.272-4.263,9.076-6.191,14.021-6.191,9.903,0,18.559,7.424,18.559,18.14,0,1.744-0.616,4.512-1.731,7.489"/>
   </g>
  </g>
 </g>
</svg>
