<svg xmlns="http://www.w3.org/2000/svg" height="80" width="162" version="1.1" xmlns:cc="http://creativecommons.org/ns#" xmlns:xlink="http://www.w3.org/1999/xlink" xmlns:dc="http://purl.org/dc/elements/1.1/">
 <defs>
  <clipPath id="clipPath9589-3" clipPathUnits="userSpaceOnUse">
   <path d="m275.95,28.68-29.961,9.9219s3.821,151.64-50.867,162.25c-36.066,41.79,5.547,1785,136.56,5.977,0,0-44.844-22.519-53.333-60.75-8.484-38.262-2.402-117.4-2.402-117.4z"/>
  </clipPath>
  <linearGradient id="linearGradient9958-5" gradientUnits="userSpaceOnUse" gradientTransform="matrix(34.4405,-11.6197,-10.4818,-30.9077,7.77644,57.6017)">
   <stop stop-color="#949869" offset="0"/>
   <stop stop-color="#fdfcf0" offset="1"/>
  </linearGradient>
  <clipPath id="clipPath9605-6" clipPathUnits="userSpaceOnUse">
   <path d="m292.1,175.11s260.36,171.48,199.36,527.59c-58.742,258.73-197.42,343.77-212.33,376.25-16.407,22.98-32.926,63.7-32.926,63.7l11.07-720.88s-22.91-220.12,34.824-246.67z"/>
  </clipPath>
  <linearGradient id="linearGradient9960-4" gradientUnits="userSpaceOnUse" gradientTransform="matrix(24.1174,-93.624,-100.736,-16.1507,20.3938,113.589)">
   <stop stop-color="#45ab3a" offset="0"/>
   <stop stop-color="#3c9439" offset="1"/>
  </linearGradient>
  <clipPath id="clipPath9621-1" clipPathUnits="userSpaceOnUse">
   <path d="m230.75,165.54s-244.22,166.6-230.16,460.56c14.047,293.95,186.54,438.5,220.13,464.7,21.715,23.16,22.617,32.08,24.293,54.92,15.226-32.7,12.699-488.44,14.308-541.7,6.262-207.36-11.484-399.34-28.574-438.48z"/>
  </clipPath>
  <linearGradient id="linearGradient9962-8" gradientUnits="userSpaceOnUse" gradientTransform="matrix(42.2107,9.59071,13.1901,-39.4122,-2.50844,59.5878)">
   <stop stop-color="#40a73b" offset="0"/>
   <stop stop-color="#5fbe47" offset="1"/>
  </linearGradient>
 </defs>
 <g transform="translate(0,-972.36218)">
  <g transform="matrix(0.29810726,0,0,-0.29810726,21.058896,1029.4396)">
   <g transform="scale(0.1,0.1)">
    <g clip-path="url(#clipPath9589-3)">
     <path fill-rule="nonzero" fill="url(#linearGradient9958-5)" d="m275.95,28.68-29.961,9.9219s3.821,151.64-50.867,162.25c-36.066,41.79,5.547,1785,136.56,5.977,0,0-44.844-22.519-53.333-60.75-8.484-38.262-2.402-117.4-2.402-117.4"/>
    </g>
   </g>
   <g transform="scale(0.1,0.1)">
    <g clip-path="url(#clipPath9605-6)">
     <path fill-rule="nonzero" fill="url(#linearGradient9960-4)" d="m292.1,175.11s260.36,171.48,199.36,527.59c-58.742,258.73-197.42,343.77-212.33,376.25-16.407,22.98-32.926,63.7-32.926,63.7l11.07-720.88s-22.91-220.12,34.824-246.67"/>
    </g>
   </g>
   <g transform="scale(0.1,0.1)">
    <g clip-path="url(#clipPath9621-1)">
     <path fill-rule="nonzero" fill="url(#linearGradient9962-8)" d="m230.75,165.54s-244.22,166.6-230.16,460.56c14.047,293.95,186.54,438.5,220.13,464.7,21.715,23.16,22.617,32.08,24.293,54.92,15.226-32.7,12.699-488.44,14.308-541.7,6.262-207.36-11.484-399.34-28.574-438.48"/>
    </g>
   </g>
   <path fill-rule="nonzero" fill="#8e7252" d="m318.17,26.042c1.728-1.3813,5.182-1.9496,8.227-1.9496,3.948,0,7.814,0.732,11.598,4.1422,3.865,3.4945,6.498,8.8558,6.498,17.386,0,8.2047-3.126,14.866-9.541,18.766-3.621,2.2743-8.308,3.1676-13.655,3.1676-1.564,0-3.127-0.0808-4.032-0.4871-0.246-0.1625-0.74-0.8125-0.74-1.1379-0.164-1.4621-0.164-12.591-0.164-19.171,0-6.7426,0-16.166,0.164-17.304,0.083-0.9738,0.576-2.6801,1.645-3.4113zm-16.42,45.167c1.398,0,6.712-0.2438,9.181-0.2438,4.606,0,7.813,0.2438,16.449,0.2438,7.24,0,13.327-1.95,17.687-5.686,5.265-4.55,8.061-10.886,8.061-18.603,0-10.967-5.018-17.303-10.035-20.878-5.018-3.7363-11.517-5.8484-20.811-5.8484-4.936,0-13.41,0.1625-20.484,0.2425h-0.097c-0.328,0.6508,0.607,3.184,1.185,3.25,1.912,0.2164,2.43,0.2899,3.319,0.6555,1.492,0.6145,1.846,1.3754,2.011,4.0566,0.246,5.036,0.165,11.047,0.165,17.872,0,4.8735,0.081,14.378-0.084,17.384-0.246,2.518-1.314,3.1676-3.454,3.6555-1.069,0.2433-2.55,0.4875-4.606,0.7312-0.164,0.4867,1.102,2.6809,1.513,3.168"/>
   <path fill-rule="nonzero" fill="#8e7252" d="m374.91,67.228c-0.328-0.0812-0.74-0.8937-0.74-1.3-0.082-2.9238-0.164-10.56-0.164-15.84,0-0.1625,0.246-0.4063,0.411-0.4063,1.07-0.082,3.701-0.1632,5.922-0.1632,3.126,0,4.937,0.407,5.923,0.8945,2.632,1.2988,3.865,4.1426,3.865,7.2293,0,7.0676-4.935,9.7484-12.254,9.7484-0.495,0-1.893,0-2.963-0.1629zm18.68-32.494c0,7.1484-5.264,11.21-14.89,11.21-0.41,0-3.455,0.0824-4.194-0.0809-0.247-0.0805-0.493-0.243-0.493-0.4055,0-5.1183-0.083-13.323,0.164-16.572,0.164-1.3812,1.152-3.3312,2.385-3.8996,1.318-0.7312,4.277-0.8937,6.334-0.8937,5.676,0,10.694,3.1683,10.694,10.642zm-33.529,36.475c0.741,0,2.93-0.2438,8.523-0.2438,5.265,0,9.541,0.1621,14.641,0.1621,6.333,0,15.053-2.2746,15.053-11.698,0-4.6301-3.29-8.3672-7.567-10.155-0.248-0.0812-0.248-0.2437,0-0.325,6.087-1.5426,11.433-5.2801,11.433-12.428,0-6.986-4.359-11.374-10.692-14.136-3.867-1.705-8.637-2.2738-13.492-2.2738-3.701,0-13.62,0.4063-19.132,0.3238-0.577,0.245,0.528,2.8446,1.02,3.25,1.317,0.0813,2.332,0.1758,3.731,0.5821,1.973,0.4875,2.208,1.1238,2.454,4.0488,0.166,2.5176,0.166,11.535,0.166,17.953,0,8.7735,0.081,14.703,0,17.627-0.083,2.275-0.906,3.0062-2.469,3.4125-1.233,0.2433-3.289,0.4875-4.934,0.7312-0.412,0.4063,0.854,2.843,1.265,3.168"/>
   <path fill-rule="nonzero" fill="#482f25" d="m65.784,20.229c-0.1371,0.2188-0.2821,0.8649-0.252,1.6422,0.0227,0.591,0.1403,0.9664,0.2508,1.0949,1.5512,0.2449,2.2859,0.4102,3.1574,0.6434,1.4543,0.3605,2.0028,1.1461,2.0879,3.0058,0.2391,4.3817,0.2528,12.597,0.1656,18.375l0.0012,0.17c0.0067,0.6199,0.0164,1.4671-0.7621,2.0652-1.141,0.7516-2.5629,1.373-4.3629,1.9129-0.6887,0.2043-1.0695,0.566-1.0488,0.9894,0.0215,0.4075,0.4531,0.9246,1.3512,1.0981,2.382,0.2453,8.6273,1.732,11.078,2.8629,0.1449-0.1762,0.3742-0.5582,0.3301-1.1676-0.0188-0.2563-0.041-0.5242-0.0637-0.802-0.0695-0.816-0.148-1.7418-0.148-2.6644,0-0.2719,0.2949-0.5289,0.6074-0.5289,0.1586,0,0.3054,0.0617,0.425,0.1797,4.6703,3.655,8.8476,4.9597,10.998,4.9597,3.5336,0,6.2836-1.6867,8.4086-5.1543,0.1246-0.1836,0.2922-0.2804,0.4793-0.2804,0.1781,0,0.3465,0.0918,0.4453,0.239,4.2946,3.2535,8.5506,5.1957,11.396,5.1957,6.734,0,10.757-5.0351,10.757-13.466,0-2.4226-0.025-5.4933-0.046-8.3601-0.021-2.5149-0.038-4.8727-0.038-6.5043,0-0.3957,0.528-1.4926,1.327-1.7121,0.985-0.4789,2.408-0.7235,4.204-1.0332l0.069-0.0114c0.137-0.4828-0.149-2.3629-0.423-2.7476-0.445,0.0035-1.063,0.0355-1.832,0.0742-1.399,0.0719-3.314,0.1684-5.545,0.1684-4.475,0-6.813-0.0879-9.046-0.2321-0.168,0.5578-0.227,2.3571-0.022,2.7321,1.303,0.2437,1.947,0.4082,2.729,0.6394,1.423,0.4692,1.834,1.1141,1.917,3.0031,0.032,1.3446,0.291,13.168-0.167,15.976-0.423,2.9094-2.618,6.3149-7.42,6.3149-1.781,0-4.659-0.7399-7.4022-2.8172-0.1703-0.1657-0.2683-0.4868-0.2683-0.6977l0.0051-0.0543c0.323-1.5152,0.323-3.2824,0.323-5.9566,0-1.5242-0.0098-3.1414-0.0183-4.7469-0.0188-3.2598-0.0364-6.3383,0.0183-8.6633,0-1.5855,0.9594-1.9637,1.7314-2.2691,0.419-0.093,0.752-0.1731,1.085-0.2524,0.647-0.1558,1.316-0.3164,2.306-0.475,0.135-0.3125,0.148-1.2457-0.038-2.0437-0.104-0.441-0.224-0.6356-0.286-0.6985-2.489,0.0852-5.0421,0.1598-8.7257,0.1598-1.1164,0-2.9399-0.0484-4.5481-0.091-1.3035-0.0348-2.5383-0.0688-3.2394-0.0715-0.102,0.1606-0.2442,0.675-0.2442,1.416,0,0.6887,0.1266,1.1742,0.2567,1.3239,0.3457,0.064,0.675,0.1222,0.989,0.1781,0.8641,0.1539,1.6102,0.2851,2.3262,0.4613,1.2191,0.3715,1.6766,1.0484,1.7656,2.5969,0.2379,3.6156,0.4242,14.029-0.0879,16.638-0.8718,4.1847-3.2574,6.3058-7.0886,6.3058-2.2469,0-5.0821-1.0793-7.4-2.8152-0.3887-0.2863-0.6828-1.007-0.6828-1.6723,0-1.2398-0.004-2.7168-0.0086-4.3004-0.0157-5.2304-0.0344-11.741,0.0929-14.558,0.0782-0.8656,0.3801-1.8964,2.0145-2.2765,0.3566-0.0996,0.9746-0.2032,1.6902-0.3211,0.4125-0.0688,0.8629-0.1434,1.3262-0.2266,0.1664-0.4476,0.0644-2.2031-0.2203-2.7496-0.7149,0.0047-1.5946,0.0453-2.6032,0.0899-1.5414,0.0679-3.4582,0.1539-5.6429,0.1539-2.5711,0-4.3613-0.086-5.7988-0.1539-0.9637-0.0454-1.8-0.086-2.6344-0.0899"/>
   <path fill-rule="nonzero" fill="#482f25" d="m147.39,50.611c-1.498,0-2.895-0.3914-3.935-1.1035-2.857-1.7351-4.31-5.1996-4.31-10.289,0-9.5305,4.777-16.186,11.617-16.186,2.017,0,3.663,0.5793,5.03,1.7719,2.102,1.7129,3.216,5.2113,3.216,10.109,0,9.389-4.67,15.697-11.618,15.697zm1.317-31.114c-12.358,0-16.762,9.055-16.762,17.528,0,5.918,2.423,10.546,7.205,13.753,3.398,2.0863,7.455,3.2867,11.119,3.2867,9.431,0,16.02-6.773,16.02-16.472,0-6.5946-2.633-11.799-7.612-15.052-2.388-1.4633-6.531-3.0437-9.97-3.0437"/>
   <path fill-rule="nonzero" fill="#482f25" d="m275.37,50.611c-1.5,0-2.898-0.3914-3.937-1.1035-2.855-1.7351-4.31-5.1984-4.31-10.289,0-9.5305,4.777-16.186,11.618-16.186,2.018,0,3.662,0.5793,5.03,1.7731,2.101,1.7117,3.216,5.2089,3.216,10.107,0,9.3894-4.669,15.698-11.617,15.698zm1.316-31.114c-12.36,0-16.763,9.0539-16.763,17.526,0,5.9203,2.425,10.548,7.206,13.756,3.398,2.0863,7.454,3.2855,11.119,3.2855,9.432,0,16.02-6.7742,16.02-16.471,0-6.5961-2.633-11.8-7.612-15.051-2.388-1.4645-6.531-3.0449-9.97-3.0449"/>
   <path fill-rule="nonzero" fill="#482f25" d="m234.01,50.936c-3.81,0-6.272-3.005-6.272-7.6554,0-4.6938,2.117-10.174,8.082-10.174,1.025,0,2.882,0.4546,3.801,1.4679,1.386,1.2719,2.291,3.9,2.291,6.6758,0,6.0652-2.955,9.6855-7.902,9.6855zm-0.493-32.087c-1.431,0-2.472-0.416-3.094-0.7652-3.015-1.9305-4.413-3.8586-4.413-6.0785,0-2.0942,0.814-3.7582,2.562-5.2371,2.117-1.7918,4.972-2.6629,8.728-2.6629,7.387,0,10.699,3.9668,10.699,7.9,0,2.7359-1.375,4.5707-4.204,5.6074-2.18,0.7961-5.821,1.2363-10.278,1.2363zm0.49-18.849c-4.437,0-7.634,0.93516-10.365,3.034-2.656,2.0488-3.846,5.0859-3.846,7.184,0,0.6039,0.143,2.164,1.455,3.6539,0.774,0.8777,2.564,2.5203,6.7,5.3617,0.127,0.0477,0.216,0.173,0.216,0.325,0,0.1691-0.11,0.3066-0.26,0.3387-3.409,1.3039-4.437,3.4429-4.747,4.6039-0.005,0.0414-0.019,0.1082-0.034,0.1789-0.098,0.4554-0.189,0.8859,0.427,1.3277,0.477,0.3406,1.244,0.7942,2.056,1.2731,1.198,0.707,2.556,1.5078,3.308,2.1519,0.119,0.116,0.167,0.2863,0.139,0.4567-0.029,0.1718-0.128,0.3132-0.276,0.3859-5.045,1.6934-7.585,5.4363-7.585,11.137,0,3.6801,1.699,7.0063,4.66,9.1273,2.029,1.6016,7.122,3.5274,10.422,3.5274l0.192-0.002c3.394-0.08,5.308-0.7902,7.956-1.7699,1.438-0.532,2.799-0.7476,4.703-0.7476,2.81,0,4.037,0.8898,5.09,1.9113,0.06-0.127,0.203-0.5281,0.268-1.4527,0.067-0.943-0.191-2.3407-0.913-3.3379-0.575-0.795-1.906-1.3715-3.163-1.3715-0.127,0-0.25,0.0058-0.369,0.0183-1.294,0.127-1.902,0.3153-1.908,0.3184l-0.317-0.1106c-0.1-0.146-0.036-0.3082,0.047-0.5132,0.019-0.0496,0.04-0.0957,0.047-0.127,0.165-0.6574,0.458-2.5773,0.458-3.1152,0-5.9781-2.361-8.586-4.914-10.514-2.434-1.8355-5.281-2.9391-8.489-3.2777h-0.003c-0.065,0-0.369-0.027-0.982-0.0813-0.395-0.0355-0.887-0.0801-0.96-0.0801l-0.072-0.0097c-0.557-0.1574-2.004-0.8442-2.004-2.1231,0-1.0636,0.656-2.382,3.783-2.6179,0.634-0.0477,1.315-0.095,2.025-0.1434,4.129-0.2871,9.285-0.6449,11.712-1.4672,3.338-1.2148,5.415-4.2015,5.415-7.7937,0-5.3649-3.819-10.409-10.215-13.491-3.12-1.4568-6.26-2.167-9.67-2.167"/>
   <path fill-rule="nonzero" fill="#482f25" d="m213.93,23.215c-1.809,0.2438-3.126,0.4875-4.688,1.2184-0.247,0.1625-0.577,0.8938-0.577,1.1375-0.164,2.5184-0.164,9.8297-0.164,14.622,0,3.8996-0.658,7.3109-2.303,9.7492-1.974,2.7613-4.77,4.3863-8.39,4.3863-3.207,0-7.485-2.1937-11.022-5.2-0.082-0.0808-0.626-0.5957-0.614,0.2043,0.013,0.7988,0.136,2.4246,0.211,3.4492,0.074,1.0231-0.539,1.5059-0.539,1.5059-2.303-1.1375-8.792-2.6774-11.187-2.925-1.751-0.3363-2.269-2.018-0.33-2.5984v-0.0004c0.012-0.0036,0.022-0.0071,0.034-0.0106,1.948-0.5859,3.263-1.2121,4.244-1.8582,0.74-0.5683,0.658-1.3808,0.658-2.0308,0.082-5.4426,0.082-13.811-0.165-18.359-0.082-1.7875-0.576-2.4363-1.892-2.7621l0.121,0.0406c-0.988-0.243-1.81-0.4066-3.044-0.5688-0.412-0.4054-0.412-2.7617,0-3.25,0.822,0,5.018,0.245,8.472,0.245,4.771,0,7.239-0.245,8.473-0.245,0.493,0.5696,0.658,2.7633,0.329,3.25-1.399,0.0813-2.386,0.2438-3.373,0.4875-1.317,0.325-1.646,0.9747-1.727,2.4372-0.164,3.8175-0.164,11.941-0.164,17.466,0,1.5437,0.411,2.275,0.905,2.6812,1.644,1.4621,4.359,2.436,6.744,2.436,2.303,0,3.866-0.7309,5.018-1.7047,1.563-1.3,2.139-3.1688,2.303-4.55,0.329-3.0871,0.246-9.261,0.246-14.622,0-2.9246-0.246-3.6558-1.315-3.9808-0.494-0.2438-1.81-0.4875-3.373-0.6497-0.493-0.4867-0.329-2.7617,0-3.25,2.139,0,4.607,0.245,8.225,0.245,4.525,0,7.403-0.245,8.555-0.245,0.494,0.5696,0.657,2.6821,0.329,3.25"/>
  </g>
 </g>
</svg>
