<svg xmlns="http://www.w3.org/2000/svg" height="80" width="162" version="1.1" xmlns:cc="http://creativecommons.org/ns#" xmlns:dc="http://purl.org/dc/elements/1.1/">
 <g transform="translate(0,-972.36218)">
  <g transform="matrix(0.01376166,0,0,-0.01376166,36.274605,1052.271)">
   <path opacity="0" d="m0,0,6500,0,0,5800h-6500v-5800z"/>
   <path fill-rule="evenodd" fill="#354750" d="m1601,1671.4,0,305.52c0,40.12,25.1,72.39,66.65,72.39h11.52c41.54,0,66.52-32.29,66.52-72.39v-643.2c0-156.85-77.5-281.64-212.52-361.15-62.61-36.84-131.79-55.739-204.37-55.739h-28.69c-156.88,0-281.53,77.551-361.16,212.5-36.953,62.65-55.723,131.73-55.723,204.39v28.67c0,156.9,77.539,281.62,212.46,361.27,62.66,36.99,131.74,55.74,204.42,55.74h28.69c106.17,0,196.25-41.15,272.2-108zm-573.1-323.32c0-113.3,54.92-198.48,154.2-252.8,40.14-21.97,83.73-33.77,129.53-33.77,111.21,0,193.69,52.46,250.59,146.7,26.46,43.85,38.78,91.8,38.78,142.8,0,98.22-46.5,174.86-125.64,231.79-47.99,34.51-102.01,51.82-160.92,51.82-121.21,0-208.44-61.23-260.8-170.02-17.67-36.78-25.74-75.84-25.74-116.52zm1219.7,431.32,20.05,0c167.64,0,295.12-81.32,375.92-227.65,32.31-58.54,49.59-122.42,49.59-189.36v-28.67c0-156.84-77.34-281.82-212.58-361.17-62.61-36.719-131.77-55.719-204.33-55.719h-28.65c-156.88,0-281.55,77.551-361.16,212.5-36.95,62.65-55.76,131.73-55.76,204.39v28.67c0,156.92,77.83,281.23,212.42,361.23,62.58,37.19,131.78,55.78,204.5,55.78zm-272.25-431.32c0-109.98,53.98-190.88,146.87-247.76,43.62-26.72,91.65-38.81,142.62-38.81,108.67,0,188.99,55.1,244.9,146.82,26.66,43.73,38.72,91.76,38.72,142.68,0,102.26-49.26,180.39-133.46,237.01-46.15,31.05-97.52,46.6-153.09,46.6-121.21,0-208.44-61.23-260.78-170.02-17.71-36.78-25.78-75.84-25.78-116.52zm1319.3,274.98c-21.84,10.23-62.74,13.63-86.35,14.53-120.88,4.55-208.34-63.52-259.65-170.16-17.71-36.78-25.8-75.72-25.8-116.42,0-123.93,65.06-210.69,175.68-263.58,40.41-19.31,92.58-22.99,136.74-22.99,38.85,0,93.73,23.81,128.2,40.18l5.98,2.83h26.74l2.95-0.6c32.91-6.84,57.75-27.7,57.75-63.11v-14.32c0-88.078-160.99-108.26-222.42-112.54-216.78-15.012-378.91,104.05-440.72,310.83-10.74,35.89-15.57,71.56-15.57,108.98v28.63c0,156.9,77.85,281.17,212.42,361.12,62.58,37.16,131.78,55.82,204.48,55.82h28.67c77.11,0,148.14-21.9,211.81-65.39l5.24-3.62,3.3-5.45c6.87-11.4,12.79-24.57,12.79-38.14v-14.32c0-36.93-27.63-56.79-60.99-63.22l-2.76-0.49h-8.55c-21.6,0-70.67,22.36-89.94,31.43zm469.29-97.97c56.19,56.27,112.6,112.44,169.63,167.79,15.9,15.43,76.08,80.78,99.77,80.78h25.92l2.95-0.6c33-6.86,57.73-27.76,57.73-63.23v-14.31c0-24.2-28.34-52.31-43.97-68.87-33.24-35.23-68.24-69.32-102.26-103.83l-174.6-483c75.26-75.43,150.45-150.94,225.1-226.95,20.65-21.02,41.31-42.07,61.64-63.4,7.19-7.56,17.8-16.97,23.83-27.46,6.47-9.81,10.45-20.88,10.45-32.701v-14.961l-0.84-3.437c-8.13-33-29.08-59.641-65.66-59.641h-11.51c-23.94,0-50.97,27.09-67.38,42.551-33.77,31.859-66.41,65.359-99.53,97.899l-111.08,109.04v-174.28c0-40.14-25.13-72.402-66.64-72.402h-11.4c-41.55,0-66.64,32.262-66.64,72.402v982.07c0,40.16,25.11,72.27,66.64,72.27h11.4c41.51,0,66.64-32.11,66.64-72.27v-449.02zm1803.3,248.57,14.36,0c43.4,0,72.36-29.24,72.36-72.38,0-59.9-57.26-75.23-106.81-75.23-64.98,0-127.01-39.34-171.8-83.46-55.86-55.06-80.31-125.59-80.31-203.11v-350.27c0-40.16-25.06-72.379-66.66-72.379h-11.41c-41.58,0-66.64,32.219-66.64,72.379v370.37c0,142.23,69.24,258.32,184.65,339.75,68.94,48.65,147.87,74.33,232.26,74.33zm-1028.3-999.7c52.65-18.38,112.69-15.76,166.71-6.35,27.62,11.74,98.29,42.56,124.28,38.05l4.06-0.68,3.73-1.84c15.86-7.69,31.02-18.57,39.11-34.71,18.94-37.87,9.84-75.91-27.35-97.398l-12.38-7.152c-137.25-79.219-283.22-68.239-420.02,5.75-65.41,35.35-115.45,87.85-152.36,151.83l-8.64,14.96c-88.1,152.58-76.21,313.09,23.15,458.19,34.31,50.15,79.14,88.9,131.56,119.2l19.83,11.44c129.25,74.61,267.77,69.51,400.52,4.02,71.37-35.21,129.2-87.71,169.05-156.73l7.16-12.43c28.95-50.15-8.55-93.86-47.26-123.73-44.92-34.66-90.28-76.36-133.34-113.53-96-82.87-191.86-165.94-287.81-248.89zm-124.26,87.27c107.38,92.07,214.78,184.2,321.85,276.64,36.59,31.56,76.72,64.31,113.03,97.5-29.14,36.7-77.79,63.16-119.14,78.94-83.44,31.8-165.74,21.12-242.27-23.06-100.19-57.84-142.85-149.96-139.1-264.59,1.47-45.14,13.62-88.64,37.58-127.05,8.44-13.54,17.87-26.25,28.05-38.38"/>
   <path fill-rule="evenodd" fill="#354750" d="m3633.9,4066.1,426.95,0,0-436.45,215.88,0c99.69,0,202.23,17.76,296.64,49.75,46.39,15.73,98.46,37.62,144.22,65.15-60.27,78.69-91.04,178.05-100.1,275.99-12.3,133.21,14.57,306.6,104.73,410.86l44.88,51.91,53.48-42.99c134.65-108.18,247.89-259.34,267.85-431.66,162.13,47.69,352.48,36.41,495.39-46.07l58.63-33.83-30.86-60.23c-120.8-236-373.5-309-620.5-296.1-369.6-920.7-1174.4-1356.6-2150.2-1356.6-504.12,0-966.64,188.45-1230,635.72l-4.32,7.3-38.37,78.07c-89.03,196.88-118.6,412.56-98.54,628.06l6.02,64.55h365.09v436.45h426.94v426.96h853.92v426.95h512.35v-853.91"/>
   <path fill-rule="nonzero" fill="#48addf" d="m5017.1,3904.6c28.63,222.48-137.87,397.24-241.13,480.21-118.99-137.57-137.48-498.12,49.2-649.92-104.18-92.54-323.72-176.42-548.5-176.42h-2736.3c-21.86-234.65,19.34-450.73,113.42-635.69l31.13-56.93c19.71-33.45,41.24-65.73,64.51-96.81h0.01c112.49-7.22,216.21-9.72,311.1-7.62h0.04c186.48,4.13,338.63,26.13,453.95,66.09,17.17,5.97,35.88-3.14,41.82-20.29,5.93-17.15-3.15-35.87-20.3-41.82-15.33-5.31-31.32-10.28-47.83-15-0.02-0.01-0.04-0.01-0.06-0.02-90.8-25.92-188.16-43.37-313.79-51.12,7.45-0.12-7.77-1.12-7.81-1.13-4.27-0.26-9.65-0.87-13.94-1.11-49.44-2.77-102.81-3.35-157.37-3.35-59.67,0-118.44,1.13-184.14,4.46l-1.68-1.11c227.99-256.25,584.47-409.94,1031.3-409.94,945.7,0,1747.8,419.22,2103,1360.4,252.01-25.86,494.2,38.4,604.37,253.46-175.49,101.27-401.15,68.98-531.09,3.67"/>
   <path fill-rule="nonzero" fill="#56beee" d="m5017.1,3904.6c28.63,222.48-137.87,397.24-241.13,480.21-118.99-137.57-137.48-498.12,49.2-649.92-104.18-92.54-323.72-176.42-548.5-176.42h-2574.2c-11.17-359.36,122.19-632.14,358.14-797.05h0.04c186.48,4.13,338.63,26.13,453.95,66.09,17.17,5.97,35.88-3.14,41.82-20.29,5.93-17.15-3.15-35.87-20.3-41.82-15.33-5.31-31.32-10.28-47.83-15-0.02-0.01-0.04-0.01-0.06-0.02-90.8-25.92-196.53-45.61-322.16-53.36-0.03,0-3.04,2.91-3.08,2.9,321.84-165.09,788.52-164.5,1323.6,41.03,599.94,230.47,1158.2,669.57,1547.7,1171.8-5.88-2.65-11.6-5.37-17.13-8.14"/>
   <path fill-rule="nonzero" fill="#388bbd" d="m1545.6,3273.4c17.01-125.69,53.77-243.38,108.3-350.59l31.13-56.93c19.71-33.45,41.24-65.73,64.52-96.81,112.51-7.22,216.24-9.72,311.14-7.62,186.48,4.13,338.63,26.13,453.95,66.09,17.17,5.97,35.88-3.14,41.82-20.29,5.93-17.15-3.15-35.87-20.3-41.82-15.33-5.31-31.32-10.28-47.83-15-0.02-0.01-0.04-0.01-0.06-0.02-90.8-25.92-195.97-44.49-321.6-52.25-4.31-0.26-11.83-0.31-16.18-0.55-49.42-2.78-102.24-4.47-156.81-4.47-59.66,0-120.67,1.14-186.36,4.47,227.98-256.25,586.69-410.5,1033.5-410.5,809.61,0,1514,307.3,1922.8,986.29h-3218.1"/>
   <path fill-rule="nonzero" fill="#409ccb" d="m1727.1,3273.4c48.4-220.69,164.71-393.95,333.55-511.95,186.48,4.13,338.63,26.13,453.95,66.09,17.17,5.97,35.88-3.14,41.82-20.29,5.93-17.15-3.15-35.87-20.3-41.82-15.33-5.31-31.32-10.28-47.83-15-0.02-0.01-0.04-0.01-0.06-0.02-90.8-25.92-198.2-44.49-323.83-52.25,321.82-165.06,787.15-162.69,1322.2,42.82,323.66,124.35,635.16,309.47,914.63,532.42h-2674.1"/>
   <path fill-rule="evenodd" fill="#46b0d7" d="m1911.8,3994.9,370.02,0,0-370.04-370.02,0,0,370.04zm30.82-30.84,29.2,0,0-308.38-29.2,0,0,308.38zm54.9,0,30.37,0,0-308.38-30.37,0,0,308.38zm56.05,0,30.37,0,0-308.38-30.37,0,0,308.38zm56.08,0,30.37,0,0-308.38-30.37,0,0,308.38zm56.07,0,30.37,0,0-308.38-30.37,0,0,308.38zm56.06,0,29.22,0,0-308.38-29.22,0,0,308.38"/>
   <path fill-rule="evenodd" fill="#46b0d7" d="m2338.8,4421.9,370.06,0,0-370.02-370.06,0,0,370.02zm30.86-30.84,29.18,0,0-308.35-29.18,0,0,308.35zm54.9,0,30.35,0,0-308.35-30.35,0,0,308.35zm56.04,0,30.37,0,0-308.35-30.37,0,0,308.35zm56.07,0,30.37,0,0-308.35-30.37,0,0,308.35zm56.08,0,30.37,0,0-308.35-30.37,0,0,308.35zm56.05,0,29.24,0,0-308.35-29.24,0,0,308.35"/>
   <path fill-rule="evenodd" fill="#58c8f1" d="m2338.8,3994.9,370.06,0,0-370.04-370.06,0,0,370.04zm30.86-30.84,29.18,0,0-308.38-29.18,0,0,308.38zm54.9,0,30.35,0,0-308.38-30.35,0,0,308.38zm56.04,0,30.37,0,0-308.38-30.37,0,0,308.38zm56.07,0,30.37,0,0-308.38-30.37,0,0,308.38zm56.08,0,30.37,0,0-308.38-30.37,0,0,308.38zm56.05,0,29.24,0,0-308.38-29.24,0,0,308.38"/>
   <path fill-rule="evenodd" fill="#46b0d7" d="m2765.7,3994.9,370.04,0,0-370.04-370.04,0,0,370.04zm30.84-30.84,29.18,0,0-308.38-29.18,0,0,308.38zm54.89,0,30.37,0,0-308.38-30.37,0,0,308.38zm56.07,0,30.37,0,0-308.38-30.37,0,0,308.38zm56.07,0,30.37,0,0-308.38-30.37,0,0,308.38zm56.06,0,30.39,0,0-308.38-30.39,0,0,308.38zm56.07,0,29.2,0,0-308.38-29.2,0,0,308.38"/>
   <path fill-rule="evenodd" fill="#58c8f1" d="m2765.7,4421.9,370.04,0,0-370.02-370.04,0,0,370.02zm30.84-30.84,29.18,0,0-308.35-29.18,0,0,308.35zm54.89,0,30.37,0,0-308.35-30.37,0,0,308.35zm56.07,0,30.37,0,0-308.35-30.37,0,0,308.35zm56.07,0,30.37,0,0-308.35-30.37,0,0,308.35zm56.06,0,30.39,0,0-308.35-30.39,0,0,308.35zm56.07,0,29.2,0,0-308.35-29.2,0,0,308.35"/>
   <path fill-rule="evenodd" fill="#58c8f1" d="m3192.7,3994.9,370.03,0,0-370.04-370.03,0,0,370.04zm30.84-30.84,29.19,0,0-308.38-29.19,0,0,308.38zm54.9,0,30.37,0,0-308.38-30.37,0,0,308.38zm56.05,0,30.37,0,0-308.38-30.37,0,0,308.38zm56.08,0,30.37,0,0-308.38-30.37,0,0,308.38zm56.07,0,30.37,0,0-308.38-30.37,0,0,308.38zm56.06,0,29.21,0,0-308.38-29.21,0,0,308.38"/>
   <path fill-rule="evenodd" fill="#46b0d7" d="m3192.7,4421.9,370.03,0,0-370.02-370.03,0,0,370.02zm30.84-30.84,29.19,0,0-308.35-29.19,0,0,308.35zm54.9,0,30.37,0,0-308.35-30.37,0,0,308.35zm56.05,0,30.37,0,0-308.35-30.37,0,0,308.35zm56.08,0,30.37,0,0-308.35-30.37,0,0,308.35zm56.07,0,30.37,0,0-308.35-30.37,0,0,308.35zm56.06,0,29.21,0,0-308.35-29.21,0,0,308.35"/>
   <path fill-rule="evenodd" fill="#58c8f1" d="m3192.7,4848.8,370.03,0,0-370.04-370.03,0,0,370.04zm30.84-30.82,29.19,0,0-308.38-29.19,0,0,308.38zm54.9,0,30.37,0,0-308.38-30.37,0,0,308.38zm56.05,0,30.37,0,0-308.38-30.37,0,0,308.38zm56.08,0,30.37,0,0-308.38-30.37,0,0,308.38zm56.07,0,30.37,0,0-308.38-30.37,0,0,308.38zm56.06,0,29.21,0,0-308.38-29.21,0,0,308.38"/>
   <path fill-rule="evenodd" fill="#46b0d7" d="m3619.6,3994.9,370.04,0,0-370.04-370.04,0,0,370.04zm30.82-30.84,29.22,0,0-308.38-29.22,0,0,308.38zm54.9,0,30.37,0,0-308.38-30.37,0,0,308.38zm56.08,0,30.37,0,0-308.38-30.37,0,0,308.38zm56.05,0,30.37,0,0-308.38-30.37,0,0,308.38zm56.09,0,30.36,0,0-308.38-30.36,0,0,308.38zm56.06,0,29.2,0,0-308.38-29.2,0,0,308.38"/>
   <path fill-rule="evenodd" fill="#d7f2f2" d="m2685.6,3025c56.37,0,102.07-45.72,102.07-102.09s-45.7-102.07-102.07-102.07c-56.38,0-102.09,45.7-102.09,102.07s45.71,102.09,102.09,102.09"/>
   <path fill-rule="evenodd" fill="#354750" d="m2685.6,2996c9.34,0,18.25-1.76,26.47-4.95-8.91-5.15-14.94-14.8-14.94-25.84,0-16.48,13.36-29.82,29.84-29.82,11.29,0,21.1,6.27,26.17,15.53,3.58-8.63,5.57-18.11,5.57-28.05,0-40.37-32.73-73.1-73.11-73.1-40.37,0-73.12,32.73-73.12,73.1,0,40.39,32.75,73.13,73.12,73.13"/>
   <path fill-rule="evenodd" fill="#354750" d="m880,3236.5,4748.8,0c-103.4,26.23-327.15,61.66-290.25,197.17-188.01-217.56-641.43-152.63-755.86-45.35-127.43-184.82-869.26-114.57-921,29.41-159.75-187.48-654.77-187.48-814.53,0-51.76-143.98-793.58-214.23-921.02-29.41-114.43-107.28-567.81-172.21-755.84,45.35,36.8-135.6-186.98-171.1-290.4-197.3"/>
   <path fill-rule="nonzero" fill="#c2e1e1" d="m2957,2289.3c-252.81,119.97-391.58,283.05-468.79,461.09-93.9-26.81-206.79-43.94-337.95-51.3-49.41-2.77-101.38-4.19-155.93-4.19-62.88,0-129.14,1.86-198.7,5.55,231.84-231.7,517.06-410.1,1045.2-413.36,38.99,0,77.7,0.76,116.21,2.21"/>
   <path fill-rule="nonzero" fill="#d7f2f2" d="m2582.1,2586.1c-34.98,47.48-68.91,107.15-93.85,164.3-93.92-26.82-206.83-43.96-338.01-51.32,90.1-48.91,218.97-94.23,431.86-112.98"/>
  </g>
 </g>
</svg>
