<?xml version="1.0" encoding="utf-8"?>
<!-- Generator: Adobe Illustrator 15.0.0, SVG Export Plug-In . SVG Version: 6.00 Build 0)  -->
<!DOCTYPE svg PUBLIC "-//W3C//DTD SVG 1.1//EN" "http://www.w3.org/Graphics/SVG/1.1/DTD/svg11.dtd">
<svg version="1.1" id="Layer_1" xmlns="http://www.w3.org/2000/svg" xmlns:xlink="http://www.w3.org/1999/xlink" x="0px" y="0px"
	 width="362px" height="302px" viewBox="0 0 362 302" enable-background="new 0 0 362 302" xml:space="preserve">
<path fill="#FCFCFC" d="M1,243.21l41.718,53.161l21.819-56.802L1,243.21z"/>
<path fill="#E6E6E6" d="M1,243.21l63.537-3.642l-50.296-68.721L1,243.21z"/>
<path fill="#F2F2F2" d="M14.241,170.848l50.296,68.721l3.765-55.186L14.241,170.848z"/>
<path fill="#E6E6E6" d="M14.241,170.848l54.061,13.535l1.51-29.134L14.241,170.848z"/>
<path fill="#F7F7F7" d="M14.241,170.848l55.57-15.599L31,134L14.241,170.848z"/>
<path fill="#FFFFFF" d="M31,134l38.812,21.249L67.37,90.302L31,134z"/>
<path fill="#F2F2F2" d="M31,134l36.37-43.698L1,58.333L31,134z"/>
<path fill="#FFFFFF" d="M1,58.333l66.37,31.968L115.59,1L1,58.333z"/>
<path fill="#FCFCFC" d="M1,58.333L115.59,1L14.241,13.194L1,58.333z"/>
<path fill="#F2F2F2" d="M42.718,296.371L105,284l-40.463-44.431L42.718,296.371z"/>
<path fill="#FCFCFC" d="M64.537,239.569L105,284l8.293-78.321L64.537,239.569z"/>
<path fill="#FFFFFF" d="M64.537,239.569l48.756-33.89l-44.991-21.296L64.537,239.569z"/>
<path fill="#FFFFFF" d="M68.302,184.383l44.991,21.296l-43.481-50.43L68.302,184.383z"/>
<path fill="#F2F2F2" d="M69.812,155.249l43.481,50.43l50.517-64.979L69.812,155.249z"/>
<path fill="#E6E6E6" d="M69.812,155.249l93.998-14.55L67.37,90.302L69.812,155.249z"/>
<path fill="#FFFFFF" d="M67.37,90.302l96.439,50.397l17.878-66.265L67.37,90.302z"/>
<path fill="#F2F2F2" d="M67.37,90.302l114.317-15.867L115.59,1L67.37,90.302z"/>
<path fill="#E6E6E6" d="M115.59,1l66.098,73.435l-10.02-49.987L115.59,1z"/>
<path fill="#F2F2F2" d="M105,284l55.579,1.603l-47.286-79.924L105,284z"/>
<path fill="#FCFCFC" d="M113.293,205.679l47.286,79.924l47.286-68.051L113.293,205.679z"/>
<path fill="#F7F7F7" d="M113.293,205.679l94.572,11.873l-44.056-76.852L113.293,205.679z"/>
<path fill="#FFFFFF" d="M163.81,140.699l44.056,76.852L233,135L163.81,140.699z"/>
<path fill="#F2F2F2" d="M163.81,140.699L233,135l-11.326-23.021L163.81,140.699z"/>
<path fill="#E6E6E6" d="M163.81,140.699l57.864-28.721l-39.986-37.544L163.81,140.699z"/>
<path fill="#F2F2F2" d="M181.688,74.435l39.986,37.544L242.971,8.025L181.688,74.435z"/>
<path fill="#FCFCFC" d="M181.688,74.435l61.283-66.409l-71.303,16.422L181.688,74.435z"/>
<path fill="#FCFCFC" d="M160.579,285.603l142.159,4.648l29.93-52.316L160.579,285.603z"/>
<path fill="#F2F2F2" d="M160.579,285.603l172.089-47.668l-81.063-33.553L160.579,285.603z"/>
<path fill="#E6E6E6" d="M160.579,285.603l91.026-81.221l-43.74,13.169L160.579,285.603z"/>
<path fill="#F2F2F2" d="M207.865,217.551l43.74-13.169L233,135L207.865,217.551z"/>
<path fill="#FFFFFF" d="M233,135l18.605,69.382L312,197L233,135z"/>
<path fill="#F2F2F2" d="M233,135l79,62L280.001,33.667L233,135z"/>
<path fill="#E6E6E6" d="M233,135l47.001-101.333l-58.327,78.311L233,135z"/>
<path fill="#FCFCFC" d="M221.674,111.979l58.327-78.311l-37.03-25.642L221.674,111.979z"/>
<path fill="#F2F2F2" d="M302.738,290.251l43.357-10.238l-13.428-42.079L302.738,290.251z"/>
<path fill="#FCFCFC" d="M251.605,204.382l81.063,33.553L312,197L251.605,204.382z"/>
<path fill="#F2F2F2" d="M312,197l34.096-29.999l-10.131-84.134L312,197z"/>
<path fill="#FFFFFF" d="M312,197l23.965-114.133l-55.964-49.2L312,197z"/>
<path fill="#F2F2F2" d="M280.001,33.667l55.964,49.2l10.131-74.842L280.001,33.667z"/>
<path fill="#F7F7F7" d="M346.096,8.025l-10.131,74.842L361,58.333L346.096,8.025z"/>
</svg>
