<?xml version="1.0" encoding="utf-8"?>
<!-- Generator: Adobe Illustrator 15.0.0, SVG Export Plug-In . SVG Version: 6.00 Build 0)  -->
<!DOCTYPE svg PUBLIC "-//W3C//DTD SVG 1.1//EN" "http://www.w3.org/Graphics/SVG/1.1/DTD/svg11.dtd">
<svg version="1.1" id="Layer_1" xmlns="http://www.w3.org/2000/svg" xmlns:xlink="http://www.w3.org/1999/xlink" x="0px" y="0px"
	 width="362px" height="302px" viewBox="0 0 362 302" enable-background="new 0 0 362 302" xml:space="preserve">
<path fill="#FCFCFC" d="M356.863,58.79l-37.581-53.16l-21.819,56.802L356.863,58.79z"/>
<path fill="#E6E6E6" d="M356.863,58.79l-59.4,3.642l50.296,68.721L356.863,58.79z"/>
<path fill="#F2F2F2" d="M347.759,131.152l-50.296-68.721l-3.765,55.186L347.759,131.152z"/>
<path fill="#E6E6E6" d="M347.759,131.152l-54.061-13.535l-1.51,29.134L347.759,131.152z"/>
<path fill="#F7F7F7" d="M347.759,131.152l-55.57,15.599L331,168L347.759,131.152z"/>
<path fill="#FFFFFF" d="M331,168l-38.812-21.249l2.441,64.947L331,168z"/>
<path fill="#F2F2F2" d="M331,168l-36.37,43.698l51.496,37.557L331,168z"/>
<path fill="#FFFFFF" d="M346.126,249.255l-51.496-37.557l-45.196,77.107L346.126,249.255z"/>
<path fill="#FCFCFC" d="M346.126,249.255l-96.692,39.551l109.037,11.28L346.126,249.255z"/>
<path fill="#F2F2F2" d="M319.282,5.629l-52.963,30.854l31.144,25.948L319.282,5.629z"/>
<path fill="#FCFCFC" d="M297.463,62.431l-31.144-25.948l-17.612,59.838L297.463,62.431z"/>
<path fill="#FFFFFF" d="M297.463,62.431l-48.756,33.89l44.991,21.296L297.463,62.431z"/>
<path fill="#FFFFFF" d="M293.698,117.617l-44.991-21.296l43.481,50.43L293.698,117.617z"/>
<path fill="#F2F2F2" d="M292.188,146.751l-43.481-50.43l-50.517,64.979L292.188,146.751z"/>
<path fill="#E6E6E6" d="M292.188,146.751l-93.998,14.55l96.439,50.397L292.188,146.751z"/>
<path fill="#FFFFFF" d="M294.63,211.698l-96.439-50.397l-17.878,66.265L294.63,211.698z"/>
<path fill="#F2F2F2" d="M294.63,211.698l-114.317,15.867l69.121,61.24L294.63,211.698z"/>
<path fill="#E6E6E6" d="M249.434,288.806l-69.121-61.24l11.99,40.346L249.434,288.806z"/>
<path fill="#F2F2F2" d="M266.319,36.483L162.172,31.81l86.535,64.512L266.319,36.483z"/>
<path fill="#FCFCFC" d="M248.707,96.321L162.172,31.81l-8.037,52.639L248.707,96.321z"/>
<path fill="#F7F7F7" d="M248.707,96.321l-94.572-11.873l44.055,76.852L248.707,96.321z"/>
<path fill="#FFFFFF" d="M198.19,161.301l-44.055-76.852L129,167L198.19,161.301z"/>
<path fill="#F2F2F2" d="M198.19,161.301L129,167l11.326,23.021L198.19,161.301z"/>
<path fill="#E6E6E6" d="M198.19,161.301l-57.864,28.721l39.986,37.544L198.19,161.301z"/>
<path fill="#F2F2F2" d="M180.313,227.565l-39.986-37.544L121,277L180.313,227.565z"/>
<path fill="#FCFCFC" d="M180.313,227.565L121,277l71.303-9.089L180.313,227.565z"/>
<path fill="#FCFCFC" d="M162.172,31.81L59.262,11.749L40,49L162.172,31.81z"/>
<path fill="#F2F2F2" d="M162.172,31.81L40,49l70.395,48.618L162.172,31.81z"/>
<path fill="#E6E6E6" d="M162.172,31.81l-51.777,65.809l43.74-13.169L162.172,31.81z"/>
<path fill="#F2F2F2" d="M154.135,84.449l-43.74,13.169L129,167L154.135,84.449z"/>
<path fill="#FFFFFF" d="M129,167l-18.605-69.382L50,105L129,167z"/>
<path fill="#F2F2F2" d="M129,167l-79-62l42.475,134.258L129,167z"/>
<path fill="#E6E6E6" d="M129,167l-36.525,72.258l47.851-49.236L129,167z"/>
<path fill="#FCFCFC" d="M140.326,190.021l-47.851,49.236L121,277L140.326,190.021z"/>
<path fill="#F2F2F2" d="M59.262,11.749L15.905,21.987L40,49L59.262,11.749z"/>
<path fill="#FCFCFC" d="M110.395,97.618L40,49l10,56L110.395,97.618z"/>
<path fill="#F2F2F2" d="M50,105L4.399,133.467l21.636,85.666L50,105z"/>
<path fill="#FFFFFF" d="M50,105L26.036,219.133l66.439,20.125L50,105z"/>
<path fill="#F2F2F2" d="M92.475,239.258l-66.439-20.125L35.16,277L92.475,239.258z"/>
<path fill="#F7F7F7" d="M35.16,277l-9.124-57.867L7.678,245.068L35.16,277z"/>
</svg>
