<?xml version="1.0" encoding="utf-8"?>
<!-- Generator: Adobe Illustrator 15.0.0, SVG Export Plug-In . SVG Version: 6.00 Build 0)  -->
<!DOCTYPE svg PUBLIC "-//W3C//DTD SVG 1.1//EN" "http://www.w3.org/Graphics/SVG/1.1/DTD/svg11.dtd">
<svg version="1.1" id="Layer_1" xmlns="http://www.w3.org/2000/svg" xmlns:xlink="http://www.w3.org/1999/xlink" x="0px" y="0px"
	 width="362px" height="302px" viewBox="0 0 362 302" enable-background="new 0 0 362 302" xml:space="preserve">
<path fill="#FCFCFC" d="M297.463,239.569l21.819,56.801l37.581-53.16L297.463,239.569z"/>
<path fill="#E6E6E6" d="M347.759,170.848l-50.296,68.721l59.4,3.642L347.759,170.848z"/>
<path fill="#F2F2F2" d="M293.698,184.383l3.765,55.186l50.296-68.721L293.698,184.383z"/>
<path fill="#E6E6E6" d="M292.188,155.249l1.51,29.134l54.061-13.535L292.188,155.249z"/>
<path fill="#F7F7F7" d="M331,134l-38.812,21.249l55.57,15.599L331,134z"/>
<path fill="#FFFFFF" d="M294.63,90.302l-2.441,64.947L331,134L294.63,90.302z"/>
<path fill="#F2F2F2" d="M360.457,41.996L294.63,90.302L331,134L360.457,41.996z"/>
<path fill="#FFFFFF" d="M249.434,13.194l45.196,77.107l65.827-48.306L249.434,13.194z"/>
<path fill="#FCFCFC" d="M335.06,1l-85.626,12.194l111.023,28.802L335.06,1z"/>
<path fill="#F2F2F2" d="M297.463,239.569l-31.144,25.948l52.963,30.854L297.463,239.569z"/>
<path fill="#FCFCFC" d="M248.707,205.679l17.612,59.838l31.144-25.948L248.707,205.679z"/>
<path fill="#FFFFFF" d="M293.698,184.383l-44.991,21.296l48.756,33.89L293.698,184.383z"/>
<path fill="#FFFFFF" d="M292.188,155.249l-43.481,50.43l44.991-21.296L292.188,155.249z"/>
<path fill="#E6E6E6" d="M294.63,90.302L201.421,118l90.768,37.249L294.63,90.302z"/>
<path fill="#FFFFFF" d="M180.313,74.435L201.421,118l93.209-27.698L180.313,74.435z"/>
<path fill="#F2F2F2" d="M249.434,13.194l-69.121,61.24L294.63,90.302L249.434,13.194z"/>
<path fill="#E6E6E6" d="M185.245,29.667l-4.933,44.768l69.121-61.24L185.245,29.667z"/>
<path fill="#F2F2F2" d="M248.707,205.679L136.283,277l130.036-11.483L248.707,205.679z"/>
<path fill="#FCFCFC" d="M154.135,217.551L136.283,277l112.424-71.321L154.135,217.551z"/>
<path fill="#F7F7F7" d="M201.421,118l-47.286,99.551l94.572-11.873L201.421,118z"/>
<path fill="#FFFFFF" d="M92.398,140.699l61.736,76.852L201.421,118L92.398,140.699z"/>
<path fill="#F2F2F2" d="M128,84.449l-35.602,56.25L201.421,118L128,84.449z"/>
<path fill="#E6E6E6" d="M180.313,74.435L128,84.449L201.421,118L180.313,74.435z"/>
<path fill="#F2F2F2" d="M121,25l7,59.449l52.313-10.014L121,25z"/>
<path fill="#FCFCFC" d="M185.245,29.667L121,25l59.313,49.435L185.245,29.667z"/>
<path fill="#FCFCFC" d="M28.376,258.375l19.262,37.25L136.283,277L28.376,258.375z"/>
<path fill="#F2F2F2" d="M110.395,204.382l-82.019,53.993L136.283,277L110.395,204.382z"/>
<path fill="#E6E6E6" d="M154.135,217.551l-43.74-13.169L136.283,277L154.135,217.551z"/>
<path fill="#F2F2F2" d="M92.398,140.699l17.996,63.683l43.74,13.169L92.398,140.699z"/>
<path fill="#FFFFFF" d="M37.583,179.125l72.812,25.257l-17.996-63.683L37.583,179.125z"/>
<path fill="#F2F2F2" d="M82,25L37.583,179.125l54.815-38.426L82,25z"/>
<path fill="#E6E6E6" d="M128,84.449L82,25l10.398,115.699L128,84.449z"/>
<path fill="#FCFCFC" d="M121,25H82l46,59.449L121,25z"/>
<path fill="#F2F2F2" d="M28.376,258.375L4.28,285.388l43.357,10.237L28.376,258.375z"/>
<path fill="#FCFCFC" d="M37.583,179.125l-9.207,79.25l82.019-53.993L37.583,179.125z"/>
<path fill="#F2F2F2" d="M25.959,62.964L7.602,125.725l29.981,53.4L25.959,62.964z"/>
<path fill="#FFFFFF" d="M82,25L25.959,62.964l11.624,116.161L82,25z"/>
<path fill="#F2F2F2" d="M35.084,5.097l-9.125,57.867L82,25L35.084,5.097z"/>
<path fill="#F7F7F7" d="M7.602,37.028l18.357,25.936l9.125-57.867L7.602,37.028z"/>
<path fill="#F2F2F2" d="M201.421,118l47.286,87.679l43.481-50.43L201.421,118z"/>
</svg>
