<svg version="1.1" xmlns="http://www.w3.org/2000/svg" xmlns:xlink="http://www.w3.org/1999/xlink" x="0px" y="0px"
     width="24px" height="24px" viewBox="0 0 24 24" style="enable-background:new 0 0 24 24;" xml:space="preserve">
 <g transform="translate(0,-8)">
  <g transform="matrix(0.25507056,0,0,0.25507055,-29.253523,-80.678846)">
   <path d="m118.17,382.95,43.391,12.947,43.741-12.947-44.091-13.755z" fill="#fff"/>
   <path fill="#fff" d="m135.5,407.46c1.821,1.0946,3.6049,2.2392,5.5625,3.0938,1.4974,0.65369,3.0574,1.2468,4.625,1.75,1.5676,0.50325,3.1518,0.93709,4.7812,1.2812,1.6295,0.34416,3.2858,0.60484,4.9688,0.78125s3.397,0.25,5.125,0.25,3.442-0.0736,5.125-0.25c1.683-0.17641,3.3393-0.43709,4.9688-0.78125s3.2136-0.778,4.7812-1.2812c1.5676-0.50325,3.1276-1.0963,4.625-1.75,1.9576-0.8546,3.7416-1.9991,5.5625-3.0938,0.0411-0.7769,0.15625-1.5218,0.15625-2.3125,0-4.7235-0.75015-9.2108-2.0938-13.281l-22.562,7.0312-23.5-7.5c-1.4472,4.1981-2.2812,8.837-2.2812,13.75,0,0.79074,0.11519,1.5356,0.15625,2.3125z"/>
   <path stroke-linejoin="miter" d="m320.54,480.16c0,2.1988-1.7825,3.9813-3.9813,3.9813s-3.9813-1.7825-3.9813-3.9813,1.7825-3.9813,3.9813-3.9813,3.9813,1.7825,3.9813,3.9813z" transform="matrix(0.83538606,0,0,0.83538606,-141.14182,-2.5814687)" stroke="#fff" stroke-miterlimit="4" stroke-dasharray="none" stroke-width="1.29999995" fill="none"/>
   <path d="m127.29,414.8c0,4.0234-1.7825,5.4213-3.9813,5.4213s-3.9813-1.398-3.9813-5.4213c0-4.0234,1.7825-8.9791,3.9813-8.9791s3.9813,4.9557,3.9813,8.9791z" fill="#fff"/>
   <path stroke-linejoin="miter" d="m123.3,383.63,0,11.615" stroke="#fff" stroke-linecap="butt" stroke-miterlimit="4" stroke-dasharray="none" stroke-width="1.79999995" fill="none"/>
   <path stroke-linejoin="miter" d="m123.3,401.81,0,4.9574" stroke="#fff" stroke-linecap="butt" stroke-miterlimit="4" stroke-dasharray="none" stroke-width="1.79999995" fill="none"/>
  </g>
 </g>
</svg>
