<svg xmlns="http://www.w3.org/2000/svg" height="80" width="162" version="1.1" xmlns:cc="http://creativecommons.org/ns#" xmlns:dc="http://purl.org/dc/elements/1.1/">
 <g transform="translate(0,-972.36218)">
  <g transform="matrix(0.14622512,0,0,0.14622512,23.546981,997.6512)">
   <path fill="#302a6e" d="M113.85,68.639,47.45,183.52c-0.52,0.896-0.942,1.849-1.248,2.825l-0.235,0.755,0.332,0.724,5.237,11.374,0.34,0.74,0.761,0.306c0.758,0.304,1.499,0.488,2.122,0.625l1.466,0.326,0.757-1.29,4.242-7.224,2.738-4.838,66.963-115.98,1.778-3.215h-18.851z"/>
   <polygon points="212.11,179.08,231.11,179.08,154.98,47.216,151.94,67.955,151.94,74.875" fill="#7d65ac"/>
   <path fill="#f1a92f" d="m235.12,187.14c-0.072-0.289-0.165-0.562-0.261-0.839l-0.068-0.197-0.474-1.398h-1.475l-13.897,0.052h-146.79c-2.536,4.256-6.893,11.6-9.77,16.457h161.09c1.885-0.004,3.683-0.373,5.35-1.108l0.695-0.301,0.333-0.684,5.126-10.604,0.315-0.663-0.166-0.715z"/>
   <path fill="#2e3192" d="M113.99,69.45"/>
   <polygon points="169.4,91.227,165.95,88.025,152.58,75.635,151.92,75.023,151.92,74.123,151.92,12.129,151.92,10.072,153.98,10.072,167.35,10.072,169.4,10.072,169.4,12.129,169.4,86.514,169.4,91.227" fill="#7d65ac"/>
   <path fill="#2e3192" d="M114.55,72.219"/>
   <polygon points="122,14.511,122,23.068,132.38,34.869,132.38,14.511" fill="#7d65ac"/>
   <polygon points="168.92,21.992,177.7,6.854,107.67,6.854,121.97,23.11,168.34,23.11" fill="#7d65ac"/>
   <path fill="#f1a92f" d="m133.26,161.58s-7.408,5.492-12.58,3.978c0,0,25.562,25.646,52.246,1.013,0,0,8.937-10.346,8.516-17.871l-3.5-0.952s-4.879,24.234-30.485,21.233c0.001-0.001-6.481-1.443-14.197-7.401z"/>
   <path fill="#302a6e" d="m125.57,127.42s-0.837-9.186,3.155-12.81c0,0-35.211,8.453-28.085,44.066,0,0,4.176,13.021,10.816,16.582l2.641-2.487s-18.145-16.79-2.247-37.088c-0.001,0.001,4.606-4.781,13.72-8.263z"/>
   <path fill="#7d65ac" d="m159.4,137.39s8.499,3.592,9.824,8.819c0,0,9.12-35.048-25.646-45.53,0,0-13.457-2.446-19.724,1.74l0.957,3.5s23.352-8.099,33.77,15.48c0.001,0,2.046,6.312,0.819,15.991z"/>
   <path fill="#7d65ac" d="m146.7,124.64c-3.031,3.387-8.229,3.676-11.616,0.65-3.387-3.028-3.683-8.236-0.653-11.619,3.031-3.383,8.231-3.672,11.618-0.65,3.39,3.029,3.675,8.228,0.651,11.619z"/>
   <path fill="#302a6e" d="m125.1,158.17c-3.027,3.391-8.226,3.685-11.61,0.654-3.389-3.033-3.679-8.228-0.649-11.615,3.024-3.387,8.226-3.684,11.616-0.65,3.382,3.025,3.67,8.228,0.643,11.611z"/>
   <path fill="#f1a92f" d="m164.09,159.77c-3.025,3.383-8.222,3.681-11.607,0.655-3.391-3.032-3.683-8.232-0.655-11.619,3.03-3.388,8.229-3.681,11.619-0.651,3.387,3.03,3.669,8.233,0.643,11.615z"/>
   <g fill="#302a6e">
    <path d="m325.81,89.46c0,20.089-8.928,31.993-29.946,31.993-7.998,0-17.112-1.116-24.181-2.604v37.387l-22.692,3.162v-130.39h18.042l2.232,7.626c7.998-5.766,17.298-9.486,28.645-9.486,18.229,0,27.9,10.788,27.9,31.435v30.877zm-54.127,10.23c5.952,1.302,13.578,2.418,20.089,2.418,8.184,0,11.346-3.906,11.346-12.091v-31.994c0-7.44-2.79-11.532-11.16-11.532-7.44,0-15.438,3.72-20.274,8.184v45.013z"/>
    <path d="M358.73,29.008v63.242c0,4.836,2.046,7.254,7.254,7.254,5.58,0,15.438-3.348,23.622-7.626v-62.87h22.7v90.584h-17.299l-2.232-7.626c-11.346,5.58-25.668,9.486-36.271,9.486-15.066,0-20.461-10.603-20.461-26.785v-65.66h22.693z"/>
   </g>
   <g fill="#7d65ac">
    <path d="m579.5,197.46v-65.852l11.711-1.632v67.483h-11.711z"/>
    <path d="m633.55,197.46h-9.6l-0.863-3.168c-4.224,2.784-9.216,4.128-13.919,4.128-8.544,0-12.191-5.855-12.191-13.919,0-9.503,4.128-13.151,13.631-13.151h11.231v-4.896c0-5.184-1.44-7.008-8.928-7.008-4.224,0-8.831,0.576-12.959,1.44l-1.439-8.928c4.415-1.344,10.847-2.208,16.03-2.208,14.688,0,19.007,5.184,19.007,16.896v30.814zm-11.711-17.663h-8.64c-3.84,0-4.896,1.057-4.896,4.608,0,3.264,1.056,4.703,4.703,4.703,3.456,0,6.624-1.151,8.832-2.399v-6.912z"/>
    <path d="m679.92,179.51c0,11.328-3.455,18.911-21.502,18.911-4.704,0-12.287-0.48-18.143-1.632v-65.18l11.711-1.632v22.559c3.456-1.439,8.735-2.784,13.823-2.784,10.079,0,14.11,6.144,14.11,16.031v13.727zm-27.934,8.544c2.112,0.288,4.512,0.384,7.008,0.384,7.679,0,9.215-3.071,9.215-8.543v-14.399c0-3.743-1.632-5.76-5.951-5.76-3.264,0-7.392,1.344-10.271,2.688v25.63z"/>
    <path d="m699.69,198.42c-4.992,0-11.808-1.152-16.127-2.688l1.632-8.928c3.936,1.152,9.119,2.016,13.919,2.016,5.184,0,5.951-1.151,5.951-4.703,0-2.88-0.576-4.32-8.159-6.144-11.423-2.784-12.767-5.664-12.767-14.688,0-9.407,4.127-13.535,17.471-13.535,4.319,0,9.982,0.576,14.015,1.633l-1.152,9.311c-3.552-0.672-9.215-1.344-12.862-1.344-5.088,0-5.952,1.152-5.952,4.032,0,3.743,0.288,4.031,6.624,5.663,13.055,3.456,14.303,5.184,14.303,14.783-0.001,9.025-2.785,14.592-16.896,14.592z"/>
   </g>
   <path fill="#302a6e" d="m501.96,86.12c0,20.088-8.929,31.993-29.947,31.993-7.998,0-17.112-1.116-24.181-2.604v37.387l-22.692,3.162v-130.39h18.043l2.231,7.626c7.998-5.766,17.298-9.486,28.645-9.486,18.229,0,27.901,10.788,27.901,31.435v30.877zm-54.128,10.231c5.952,1.302,13.578,2.418,20.089,2.418,8.184,0,11.346-3.906,11.346-12.09v-31.993c0-7.44-2.79-11.532-11.16-11.532-7.439,0-15.438,3.72-20.274,8.184v45.013z"/>
   <path fill="#302a6e" d="m589.94,86.12c0,20.088-8.929,31.993-29.946,31.993-7.998,0-17.113-1.116-24.182-2.604v37.387l-22.691,3.162v-130.39h18.042l2.231,7.626c7.998-5.766,17.299-9.486,28.645-9.486,18.229,0,27.901,10.788,27.901,31.435v30.877zm-54.128,10.231c5.953,1.302,13.578,2.418,20.089,2.418,8.185,0,11.347-3.906,11.347-12.09v-31.993c0-7.44-2.791-11.532-11.16-11.532-7.44,0-15.439,3.72-20.275,8.184v45.013z"/>
   <path fill="#302a6e" d="m641.08,99.513c8.742,0,17.855-1.302,27.715-4.278l3.533,17.112c-10.23,3.906-22.506,5.766-33.295,5.766-28.458,0-38.316-13.206-38.316-34.969v-24.002c0-19.158,8.557-35.341,37.572-35.341,29.018,0,35.527,16.926,35.527,36.457v19.345h-50.407v4.65c0,10.974,3.906,15.253,17.671,15.253zm-17.67-38.132h28.831v-4.464c0-8.556-2.604-14.508-13.765-14.508-11.16,0-15.066,5.952-15.066,14.508v4.464z"/>
   <path fill="#302a6e" d="m738.73,114.58c-4.836,2.046-14.137,3.534-19.902,3.534-16.555,0-24.925-7.812-24.925-23.995v-50.404h-13.574v-18.043h13.579v-22.506l22.7-3.162v25.668h23.251l-1.488,18.042h-21.763v47.431c0,4.836,2.232,7.999,8.185,7.999,3.348,0,7.439-0.744,11.346-1.86l2.603,17.299z"/>
   <g>
    <path fill="#302a6e" d="m729.9,129.98c6.133,0,9.945,4.476,9.945,9.999,0,5.525-3.812,10.001-9.945,10.001-6.132,0-10-4.476-10-10.001,0-5.524,3.868-9.999,10-9.999zm0,17.79c5.028,0,7.624-3.536,7.624-7.791,0-4.253-2.596-7.789-7.624-7.789-5.083,0-7.68,3.536-7.68,7.789,0.001,4.255,2.597,7.791,7.68,7.791zm0.332-6.465h-1.88v3.039h-1.546v-9.172h3.591c2.045,0,2.873,0.884,2.873,2.433v1.271c0,0.883-0.275,1.603-1.325,2.153l2.431,3.315h-1.87l-2.265-3.039zm0.111-4.696h-1.99v3.26h1.99c0.994,0,1.326-0.387,1.326-1.05v-1.104c0-0.886-0.387-1.106-1.326-1.106z"/>
   </g>
  </g>
 </g>
</svg>
